<?xml version="1.0" standalone="no"?><!-- Generator: Gravit.io --><svg xmlns="http://www.w3.org/2000/svg" xmlns:xlink="http://www.w3.org/1999/xlink" style="isolation:isolate" viewBox="0 0 125 28" width="125" height="28"><defs><clipPath id="_clipPath_R0p2ENinT9HNSx7LnrnMxtbpZ9kJHWLD"><rect width="125" height="28"/></clipPath></defs><g clip-path="url(#_clipPath_R0p2ENinT9HNSx7LnrnMxtbpZ9kJHWLD)"><path d=" M 23.351 16.837 L 23.351 16.837 L 23.351 16.837 Q 23.468 16.778 23.565 16.778 L 23.565 16.778 L 23.565 16.778 Q 23.673 16.778 23.731 16.852 L 23.731 16.852 L 23.731 16.852 Q 23.79 16.925 23.79 17.032 L 23.79 17.032 L 23.79 17.032 Q 23.79 17.169 23.683 17.34 L 23.683 17.34 L 23.683 17.34 Q 23.575 17.511 23.351 17.647 L 23.351 17.647 L 23.351 17.647 Q 22.647 18.058 21.92 18.39 L 21.92 18.39 L 21.92 18.39 Q 21.192 18.722 20.46 19.024 L 20.46 19.024 L 20.46 19.024 Q 19.874 19.288 19.22 19.537 L 19.22 19.537 L 19.22 19.537 Q 18.565 19.786 17.887 19.977 L 17.887 19.977 L 17.887 19.977 Q 17.208 20.167 16.52 20.284 L 16.52 20.284 L 16.52 20.284 Q 15.831 20.401 15.187 20.401 L 15.187 20.401 L 15.187 20.401 Q 14.923 20.401 14.679 20.377 L 14.679 20.377 L 14.679 20.377 Q 14.435 20.353 14.2 20.294 L 14.2 20.294 L 14.2 20.294 Q 14.054 20.646 13.844 21.09 L 13.844 21.09 L 13.844 21.09 Q 13.634 21.534 13.409 21.969 L 13.409 21.969 L 13.409 21.969 Q 13.185 22.403 12.979 22.779 L 12.979 22.779 L 12.979 22.779 Q 12.774 23.155 12.657 23.36 L 12.657 23.36 L 12.657 23.36 Q 12.481 23.771 12.105 23.956 L 12.105 23.956 L 12.105 23.956 Q 11.729 24.142 11.31 24.142 L 11.31 24.142 L 11.31 24.142 Q 11.095 24.142 10.895 24.078 L 10.895 24.078 L 10.895 24.078 Q 10.694 24.015 10.538 23.897 L 10.538 23.897 L 10.538 23.897 Q 10.382 23.78 10.289 23.614 L 10.289 23.614 L 10.289 23.614 Q 10.196 23.448 10.196 23.233 L 10.196 23.233 L 10.196 23.233 Q 10.196 23.106 10.235 23.038 L 10.235 23.038 L 10.235 23.038 Q 10.353 22.774 10.577 22.306 L 10.577 22.306 L 10.577 22.306 Q 10.802 21.837 11.065 21.28 L 11.065 21.28 L 11.065 21.28 Q 11.329 20.724 11.593 20.133 L 11.593 20.133 L 11.593 20.133 Q 11.856 19.542 12.052 19.044 L 12.052 19.044 L 12.052 19.044 Q 11.974 18.966 11.959 18.893 L 11.959 18.893 L 11.959 18.893 Q 11.944 18.819 11.944 18.741 L 11.944 18.741 L 11.944 18.741 Q 11.944 18.595 12.052 18.448 L 12.052 18.448 L 12.052 18.448 Q 12.159 18.302 12.403 18.136 L 12.403 18.136 L 12.403 18.136 Q 12.794 17.354 13.185 16.598 L 13.185 16.598 L 13.185 16.598 Q 13.575 15.841 13.907 15.187 L 13.907 15.187 L 13.907 15.187 Q 14.239 14.532 14.488 14.015 L 14.488 14.015 L 14.488 14.015 Q 14.737 13.497 14.845 13.204 L 14.845 13.204 L 14.845 13.204 Q 14.21 13.194 13.683 12.994 L 13.683 12.994 L 13.683 12.994 Q 13.155 12.794 12.779 12.447 L 12.779 12.447 L 12.779 12.447 Q 12.403 12.101 12.193 11.622 L 12.193 11.622 L 12.193 11.622 Q 11.983 11.144 11.983 10.567 L 11.983 10.567 L 11.983 10.567 Q 11.983 9.796 12.291 9.161 L 12.291 9.161 L 12.291 9.161 Q 12.599 8.526 13.097 8.077 L 13.097 8.077 L 13.097 8.077 Q 13.595 7.628 14.225 7.379 L 14.225 7.379 L 14.225 7.379 Q 14.854 7.13 15.489 7.13 L 15.489 7.13 L 15.489 7.13 Q 16.339 7.13 16.866 7.408 L 16.866 7.408 L 16.866 7.408 Q 17.394 7.687 17.691 8.136 L 17.691 8.136 L 17.691 8.136 Q 17.989 8.585 18.092 9.151 L 18.092 9.151 L 18.092 9.151 Q 18.194 9.718 18.194 10.284 L 18.194 10.284 L 18.194 10.284 Q 18.194 10.655 18.087 11.002 L 18.087 11.002 L 18.087 11.002 Q 17.979 11.349 17.857 11.646 L 17.857 11.646 L 17.857 11.646 Q 17.735 11.944 17.628 12.184 L 17.628 12.184 L 17.628 12.184 Q 17.521 12.423 17.521 12.579 L 17.521 12.579 L 17.521 12.628 L 17.521 12.628 Q 17.989 12.569 18.573 12.511 L 18.573 12.511 L 18.573 12.511 Q 19.157 12.452 20.131 12.354 L 20.131 12.354 L 20.131 12.354 Q 21.104 12.257 22.027 12.101 L 22.027 12.101 L 22.027 12.101 Q 22.95 11.944 23.849 11.7 L 23.849 11.7 L 23.849 11.7 Q 24.747 11.456 25.558 11.104 L 25.558 11.104 L 25.558 11.104 Q 26.368 10.753 26.983 10.255 L 26.983 10.255 L 26.983 10.255 Q 27.599 9.757 27.96 9.093 L 27.96 9.093 L 27.96 9.093 Q 28.321 8.429 28.321 7.569 L 28.321 7.569 L 28.321 7.569 Q 28.321 6.944 27.813 6.412 L 27.813 6.412 L 27.813 6.412 Q 27.306 5.88 26.456 5.45 L 26.456 5.45 L 26.456 5.45 Q 25.606 5.021 24.498 4.698 L 24.498 4.698 L 24.498 4.698 Q 23.39 4.376 22.197 4.211 L 22.197 4.211 L 22.197 4.211 Q 21.003 4.047 19.824 3.884 L 19.824 3.884 L 19.824 3.884 Q 18.644 3.722 17.628 3.722 L 17.628 3.722 L 17.628 3.722 Q 16.485 3.722 15.196 3.766 L 15.196 3.766 L 15.196 3.766 Q 13.907 3.81 12.659 4.036 L 12.659 4.036 L 12.659 4.036 Q 11.411 4.262 10.237 4.475 L 10.237 4.475 L 10.237 4.475 Q 9.063 4.688 8.18 5.191 L 8.18 5.191 L 8.18 5.191 Q 7.296 5.694 6.769 6.437 L 6.769 6.437 L 6.769 6.437 Q 6.241 7.179 6.241 8.233 L 6.241 8.233 L 6.241 8.233 Q 6.241 8.517 6.515 8.648 L 6.515 8.648 L 6.515 8.648 Q 6.788 8.78 7.198 8.839 L 7.198 8.839 L 7.198 8.839 Q 7.608 8.897 8.087 8.932 L 8.087 8.932 L 8.087 8.932 Q 8.565 8.966 8.976 9.059 L 8.976 9.059 L 8.976 9.059 Q 9.386 9.151 9.659 9.347 L 9.659 9.347 L 9.659 9.347 Q 9.933 9.542 9.933 9.923 L 9.933 9.923 L 9.933 9.923 Q 9.933 10.089 9.571 10.172 L 9.571 10.172 L 9.571 10.172 Q 9.21 10.255 8.653 10.255 L 8.653 10.255 L 8.653 10.255 Q 8.253 10.255 7.794 10.206 L 7.794 10.206 L 7.794 10.206 Q 7.335 10.157 6.876 10.055 L 6.876 10.055 L 6.876 10.055 Q 6.417 9.952 5.992 9.796 L 5.992 9.796 L 5.992 9.796 Q 5.567 9.64 5.245 9.42 L 5.245 9.42 L 5.245 9.42 Q 4.923 9.2 4.728 8.917 L 4.728 8.917 L 4.728 8.917 Q 4.532 8.634 4.532 8.282 L 4.532 8.282 L 4.532 8.282 Q 4.532 7.384 4.908 6.686 L 4.908 6.686 L 4.908 6.686 Q 5.284 5.987 5.934 5.445 L 5.934 5.445 L 5.934 5.445 Q 6.583 4.903 7.462 4.518 L 7.462 4.518 L 7.462 4.518 Q 8.341 4.132 9.354 3.92 L 9.354 3.92 L 9.354 3.92 Q 10.367 3.709 11.434 3.486 L 11.434 3.486 L 11.434 3.486 Q 12.501 3.263 13.561 3.17 L 13.561 3.17 L 13.561 3.17 Q 14.62 3.077 15.602 3.048 L 15.602 3.048 L 15.602 3.048 Q 16.583 3.019 17.394 3.019 L 17.394 3.019 L 17.394 3.019 Q 18.331 3.019 19.391 3.063 L 19.391 3.063 L 19.391 3.063 Q 20.45 3.106 21.539 3.248 L 21.539 3.248 L 21.539 3.248 Q 22.629 3.39 23.712 3.532 L 23.712 3.532 L 23.712 3.532 Q 24.796 3.673 25.782 3.932 L 25.782 3.932 L 25.782 3.932 Q 26.769 4.19 27.613 4.537 L 27.613 4.537 L 27.613 4.537 Q 28.458 4.884 29.078 5.333 L 29.078 5.333 L 29.078 5.333 Q 29.698 5.782 30.05 6.349 L 30.05 6.349 L 30.05 6.349 Q 30.401 6.915 30.401 7.608 L 30.401 7.608 L 30.401 7.608 Q 30.401 8.429 30.03 9.098 L 30.03 9.098 L 30.03 9.098 Q 29.659 9.767 29.02 10.304 L 29.02 10.304 L 29.02 10.304 Q 28.38 10.841 27.506 11.256 L 27.506 11.256 L 27.506 11.256 Q 26.632 11.671 25.626 11.983 L 25.626 11.983 L 25.626 11.983 Q 24.62 12.296 23.521 12.521 L 23.521 12.521 L 23.521 12.521 Q 22.423 12.745 21.331 12.876 L 21.331 12.876 L 21.331 12.876 Q 20.239 13.006 19.207 13.13 L 19.207 13.13 L 19.207 13.13 Q 18.175 13.253 17.286 13.312 L 17.286 13.312 L 17.286 13.312 Q 17.101 13.536 16.832 14.083 L 16.832 14.083 L 16.832 14.083 Q 16.563 14.63 16.231 15.377 L 16.231 15.377 L 16.231 15.377 Q 15.899 16.124 15.519 17.008 L 15.519 17.008 L 15.519 17.008 Q 15.138 17.892 14.737 18.78 L 14.737 18.78 L 14.737 18.78 Q 15.001 19.103 15.377 19.244 L 15.377 19.244 L 15.377 19.244 Q 15.753 19.386 16.202 19.386 L 16.202 19.386 L 16.202 19.386 Q 16.72 19.386 17.291 19.278 L 17.291 19.278 L 17.291 19.278 Q 17.862 19.171 18.443 18.99 L 18.443 18.99 L 18.443 18.99 Q 19.024 18.81 19.596 18.58 L 19.596 18.58 L 19.596 18.58 Q 20.167 18.351 20.694 18.116 L 20.694 18.116 L 20.694 18.116 Q 21.349 17.833 22.013 17.506 L 22.013 17.506 L 22.013 17.506 Q 22.677 17.179 23.351 16.837 Z  M 15.079 12.608 L 15.079 12.608 L 15.079 12.608 Q 15.284 12.169 15.543 11.676 L 15.543 11.676 L 15.543 11.676 Q 15.802 11.183 16.031 10.685 L 16.031 10.685 L 16.031 10.685 Q 16.261 10.187 16.417 9.718 L 16.417 9.718 L 16.417 9.718 Q 16.573 9.249 16.573 8.849 L 16.573 8.849 L 16.573 8.849 Q 16.573 8.302 16.305 7.965 L 16.305 7.965 L 16.305 7.965 Q 16.036 7.628 15.353 7.628 L 15.353 7.628 L 15.353 7.628 Q 14.776 7.628 14.254 7.823 L 14.254 7.823 L 14.254 7.823 Q 13.731 8.019 13.336 8.385 L 13.336 8.385 L 13.336 8.385 Q 12.94 8.751 12.711 9.269 L 12.711 9.269 L 12.711 9.269 Q 12.481 9.786 12.481 10.431 L 12.481 10.431 L 12.481 10.431 Q 12.481 10.958 12.677 11.363 L 12.677 11.363 L 12.677 11.363 Q 12.872 11.769 13.214 12.047 L 13.214 12.047 L 13.214 12.047 Q 13.556 12.325 14.034 12.467 L 14.034 12.467 L 14.034 12.467 Q 14.513 12.608 15.079 12.608 Z  M 26.173 15.987 L 23.351 17.647 L 23.351 17.647 Q 23.282 17.687 23.224 17.687 L 23.224 17.687 L 23.224 17.687 Q 23.126 17.687 23.077 17.604 L 23.077 17.604 L 23.077 17.604 Q 23.028 17.521 23.028 17.394 L 23.028 17.394 L 23.028 17.394 Q 23.028 17.257 23.097 17.101 L 23.097 17.101 L 23.097 17.101 Q 23.165 16.944 23.351 16.837 L 23.351 16.837 L 26.964 14.708 L 26.964 14.708 Q 27.638 14.317 28.399 14.034 L 28.399 14.034 L 28.399 14.034 Q 29.161 13.751 29.947 13.57 L 29.947 13.57 L 29.947 13.57 Q 30.733 13.39 31.505 13.307 L 31.505 13.307 L 31.505 13.307 Q 32.276 13.224 32.96 13.224 L 32.96 13.224 L 32.96 13.224 Q 33.351 13.224 33.692 13.277 L 33.692 13.277 L 33.692 13.277 Q 34.034 13.331 34.283 13.434 L 34.283 13.434 L 34.283 13.434 Q 34.532 13.536 34.674 13.683 L 34.674 13.683 L 34.674 13.683 Q 34.815 13.829 34.815 14.015 L 34.815 14.015 L 34.815 14.015 Q 34.815 14.151 34.718 14.21 L 34.718 14.21 L 34.718 14.21 Q 34.62 14.269 34.488 14.293 L 34.488 14.293 L 34.488 14.293 Q 34.356 14.317 34.215 14.327 L 34.215 14.327 L 34.215 14.327 Q 34.073 14.337 33.995 14.376 L 33.995 14.376 L 33.995 14.376 Q 33.937 14.562 33.81 14.947 L 33.81 14.947 L 33.81 14.947 Q 33.684 15.333 33.552 15.737 L 33.552 15.737 L 33.552 15.737 Q 33.419 16.14 33.316 16.457 L 33.316 16.457 L 33.316 16.457 Q 33.212 16.774 33.196 16.821 L 33.196 16.821 L 33.196 16.821 Q 33.063 17.229 32.855 17.863 L 32.855 17.863 L 32.855 17.863 Q 32.647 18.497 32.384 19.552 L 32.384 19.552 L 32.384 19.552 Q 32.394 19.552 32.604 19.439 L 32.604 19.439 L 32.604 19.439 Q 32.813 19.327 33.15 19.142 L 33.15 19.142 L 33.15 19.142 Q 33.487 18.956 33.917 18.712 L 33.917 18.712 L 33.917 18.712 Q 34.347 18.468 34.806 18.214 L 34.806 18.214 L 37.14 16.837 L 37.14 16.837 Q 37.276 16.759 37.374 16.759 L 37.374 16.759 L 37.374 16.759 Q 37.481 16.759 37.54 16.832 L 37.54 16.832 L 37.54 16.832 Q 37.599 16.905 37.599 17.013 L 37.599 17.013 L 37.599 17.013 Q 37.599 17.149 37.491 17.33 L 37.491 17.33 L 37.491 17.33 Q 37.384 17.511 37.14 17.647 L 37.14 17.647 L 31.944 20.694 L 31.944 20.694 Q 31.749 20.812 31.583 20.86 L 31.583 20.86 L 31.583 20.86 Q 31.417 20.909 31.28 20.909 L 31.28 20.909 L 31.28 20.909 Q 31.085 20.909 30.948 20.821 L 30.948 20.821 L 30.948 20.821 Q 30.812 20.733 30.724 20.577 L 30.724 20.577 L 30.724 20.577 Q 30.636 20.421 30.592 20.221 L 30.592 20.221 L 30.592 20.221 Q 30.548 20.021 30.548 19.796 L 30.548 19.796 L 30.548 19.796 Q 30.548 19.552 30.597 19.308 L 30.597 19.308 L 30.597 19.308 Q 30.646 19.063 30.724 18.839 L 30.724 18.839 L 30.724 18.839 Q 30.44 19.396 30.064 19.806 L 30.064 19.806 L 30.064 19.806 Q 29.688 20.216 29.264 20.494 L 29.264 20.494 L 29.264 20.494 Q 28.839 20.772 28.39 20.909 L 28.39 20.909 L 28.39 20.909 Q 27.94 21.046 27.511 21.046 L 27.511 21.046 L 27.511 21.046 Q 27.081 21.046 26.7 20.909 L 26.7 20.909 L 26.7 20.909 Q 26.319 20.772 26.031 20.504 L 26.031 20.504 L 26.031 20.504 Q 25.743 20.235 25.577 19.835 L 25.577 19.835 L 25.577 19.835 Q 25.411 19.435 25.411 18.907 L 25.411 18.907 L 25.411 18.907 Q 25.411 18.595 25.475 18.214 L 25.475 18.214 L 25.475 18.214 Q 25.538 17.833 25.646 17.442 L 25.646 17.442 L 25.646 17.442 Q 25.753 17.052 25.89 16.676 L 25.89 16.676 L 25.89 16.676 Q 26.026 16.3 26.173 15.987 L 26.173 15.987 L 26.173 15.987 Z  M 31.192 16.915 L 32.228 14.054 L 32.228 14.054 Q 31.446 14.054 30.733 14.317 L 30.733 14.317 L 30.733 14.317 Q 30.021 14.581 29.41 15.011 L 29.41 15.011 L 29.41 15.011 Q 28.8 15.44 28.307 15.992 L 28.307 15.992 L 28.307 15.992 Q 27.813 16.544 27.467 17.125 L 27.467 17.125 L 27.467 17.125 Q 27.12 17.706 26.93 18.272 L 26.93 18.272 L 26.93 18.272 Q 26.739 18.839 26.739 19.288 L 26.739 19.288 L 26.739 19.288 Q 26.739 19.786 26.959 20.094 L 26.959 20.094 L 26.959 20.094 Q 27.179 20.401 27.677 20.401 L 27.677 20.401 L 27.677 20.401 Q 27.97 20.401 28.316 20.221 L 28.316 20.221 L 28.316 20.221 Q 28.663 20.04 29.02 19.742 L 29.02 19.742 L 29.02 19.742 Q 29.376 19.444 29.723 19.068 L 29.723 19.068 L 29.723 19.068 Q 30.069 18.692 30.362 18.307 L 30.362 18.307 L 30.362 18.307 Q 30.655 17.921 30.875 17.555 L 30.875 17.555 L 30.875 17.555 Q 31.095 17.188 31.192 16.915 L 31.192 16.915 L 31.192 16.915 Z  M 35.187 8.194 L 35.187 8.194 L 35.187 8.194 Q 35.235 8.38 35.284 8.624 L 35.284 8.624 L 35.284 8.624 Q 35.333 8.868 35.401 9.225 L 35.401 9.225 L 35.401 9.225 Q 35.47 9.581 35.567 10.079 L 35.567 10.079 L 35.567 10.079 Q 35.665 10.577 35.812 11.271 L 35.812 11.271 L 35.812 11.271 Q 35.812 11.29 35.816 11.3 L 35.816 11.3 L 35.816 11.3 Q 35.821 11.31 35.821 11.329 L 35.821 11.329 L 35.821 11.329 Q 35.821 11.515 35.675 11.612 L 35.675 11.612 L 35.675 11.612 Q 35.528 11.71 35.353 11.71 L 35.353 11.71 L 35.353 11.71 Q 35.235 11.71 35.143 11.661 L 35.143 11.661 L 35.143 11.661 Q 35.05 11.612 35.011 11.505 L 35.011 11.505 L 35.011 11.505 Q 34.728 10.743 34.4 9.986 L 34.4 9.986 L 34.4 9.986 Q 34.073 9.229 33.761 8.468 L 33.761 8.468 L 33.761 8.468 Q 32.843 9.229 31.944 9.972 L 31.944 9.972 L 31.944 9.972 Q 31.046 10.714 30.099 11.505 L 30.099 11.505 L 30.099 11.505 Q 29.991 11.583 29.864 11.583 L 29.864 11.583 L 29.864 11.583 Q 29.728 11.583 29.601 11.51 L 29.601 11.51 L 29.601 11.51 Q 29.474 11.437 29.474 11.319 L 29.474 11.319 L 29.474 11.319 Q 29.474 11.251 29.562 11.144 L 29.562 11.144 L 29.562 11.144 Q 30.05 10.558 30.416 10.138 L 30.416 10.138 L 30.416 10.138 Q 30.782 9.718 31.056 9.43 L 31.056 9.43 L 31.056 9.43 Q 31.329 9.142 31.524 8.946 L 31.524 8.946 L 31.524 8.946 Q 31.72 8.751 31.866 8.609 L 31.866 8.609 L 31.866 8.609 Q 32.013 8.468 32.135 8.355 L 32.135 8.355 L 32.135 8.355 Q 32.257 8.243 32.384 8.106 L 32.384 8.106 L 32.384 8.106 Q 32.53 7.94 32.726 7.77 L 32.726 7.77 L 32.726 7.77 Q 32.921 7.599 33.15 7.457 L 33.15 7.457 L 33.15 7.457 Q 33.38 7.315 33.624 7.223 L 33.624 7.223 L 33.624 7.223 Q 33.868 7.13 34.103 7.13 L 34.103 7.13 L 34.103 7.13 Q 34.444 7.13 34.732 7.364 L 34.732 7.364 L 34.732 7.364 Q 35.021 7.599 35.187 8.194 Z  M 47.716 7.228 L 47.716 7.228 L 47.716 7.228 Q 47.159 7.228 46.661 7.462 L 46.661 7.462 L 46.661 7.462 Q 46.163 7.696 45.719 8.106 L 45.719 8.106 L 45.719 8.106 Q 45.274 8.517 44.884 9.083 L 44.884 9.083 L 44.884 9.083 Q 44.493 9.649 44.151 10.304 L 44.151 10.304 L 44.151 10.304 Q 43.81 10.958 43.521 11.681 L 43.521 11.681 L 43.521 11.681 Q 43.233 12.403 42.999 13.136 L 42.999 13.136 L 42.999 13.136 Q 44.317 12.188 45.313 11.339 L 45.313 11.339 L 45.313 11.339 Q 46.31 10.489 46.983 9.786 L 46.983 9.786 L 46.983 9.786 Q 47.657 9.083 47.994 8.541 L 47.994 8.541 L 47.994 8.541 Q 48.331 7.999 48.331 7.657 L 48.331 7.657 L 48.331 7.657 Q 48.331 7.462 48.209 7.345 L 48.209 7.345 L 48.209 7.345 Q 48.087 7.228 47.716 7.228 Z  M 48.702 12.989 L 48.702 12.989 L 48.702 12.989 Q 48.937 13.106 48.937 13.272 L 48.937 13.272 L 48.937 13.272 Q 48.937 13.526 48.746 13.741 L 48.746 13.741 L 48.746 13.741 Q 48.556 13.956 48.248 14.127 L 48.248 14.127 L 48.248 14.127 Q 47.94 14.298 47.555 14.425 L 47.555 14.425 L 47.555 14.425 Q 47.169 14.552 46.783 14.64 L 46.783 14.64 L 46.783 14.64 Q 46.397 14.728 46.046 14.776 L 46.046 14.776 L 46.046 14.776 Q 45.655 14.825 45.46 14.815 L 45.46 14.815 L 45.46 14.815 Q 44.698 14.796 43.956 14.786 L 43.956 14.786 L 42.521 14.767 L 42.521 14.767 Q 42.29 15.871 42.128 16.648 L 42.128 16.648 L 42.128 16.648 Q 41.965 17.425 41.847 17.99 L 41.847 17.99 L 41.847 17.99 Q 41.729 18.556 41.71 18.976 L 41.71 18.976 L 41.71 18.976 Q 41.69 19.396 41.69 19.786 L 41.69 19.786 L 41.69 19.786 Q 41.69 20.001 41.749 20.128 L 41.749 20.128 L 41.749 20.128 Q 41.808 20.255 41.944 20.255 L 41.944 20.255 L 41.944 20.255 Q 42.423 20.255 42.999 19.933 L 42.999 19.933 L 42.999 19.933 Q 43.585 19.61 44.308 19.112 L 44.308 19.112 L 45.929 18.009 L 45.929 18.009 Q 47.257 17.101 47.921 16.837 L 47.921 16.837 L 47.921 16.837 Q 47.97 16.817 48.116 16.749 L 48.116 16.749 L 48.116 16.749 Q 48.194 16.72 48.263 16.72 L 48.263 16.72 L 48.263 16.72 Q 48.478 16.72 48.478 16.944 L 48.478 16.944 L 48.478 16.944 Q 48.478 17.091 48.351 17.286 L 48.351 17.286 L 48.351 17.286 Q 48.214 17.472 47.921 17.647 L 47.921 17.647 L 47.921 17.647 Q 46.427 18.546 45.714 19.054 L 45.714 19.054 L 44.044 20.265 L 44.044 20.265 Q 43.302 20.792 42.687 21.104 L 42.687 21.104 L 42.687 21.104 Q 42.062 21.417 41.427 21.417 L 41.427 21.417 L 41.427 21.417 Q 40.88 21.417 40.577 21.124 L 40.577 21.124 L 40.577 21.124 Q 40.284 20.831 40.143 20.406 L 40.143 20.406 L 40.143 20.406 Q 40.001 19.981 39.972 19.493 L 39.972 19.493 L 39.972 19.493 Q 39.942 19.005 39.942 18.624 L 39.942 18.624 L 39.942 18.624 Q 39.942 17.882 40.066 17.156 L 40.066 17.156 L 40.066 17.156 Q 40.189 16.431 40.304 15.753 L 40.304 15.753 L 38.745 16.715 L 37.172 17.648 L 37.172 17.648 Q 37.123 17.677 37.065 17.677 L 37.065 17.677 L 37.065 17.677 Q 36.957 17.677 36.86 17.584 L 36.86 17.584 L 36.86 17.584 Q 36.762 17.491 36.762 17.355 L 36.762 17.355 L 36.762 17.355 Q 36.762 17.247 36.85 17.111 L 36.85 17.111 L 36.85 17.111 Q 36.938 16.974 37.172 16.837 L 37.172 16.837 L 38.902 15.851 L 38.902 15.851 Q 39.724 15.363 40.455 14.865 L 40.455 14.865 L 40.47 14.776 L 39.22 14.806 L 39.22 14.806 Q 39.122 14.806 39.034 14.815 L 39.034 14.815 L 39.034 14.815 Q 38.946 14.825 38.868 14.825 L 38.868 14.825 L 38.868 14.825 Q 38.702 14.825 38.6 14.723 L 38.6 14.723 L 38.6 14.723 Q 38.497 14.62 38.478 14.493 L 38.478 14.493 L 38.478 14.493 Q 38.478 14.386 38.644 14.288 L 38.644 14.288 L 38.644 14.288 Q 38.81 14.19 39.112 14.112 L 39.112 14.112 L 39.112 14.112 Q 39.415 14.024 39.835 13.951 L 39.835 13.951 L 39.835 13.951 Q 40.255 13.878 40.763 13.819 L 40.763 13.819 L 40.763 13.819 Q 41.349 11.983 42.032 10.636 L 42.032 10.636 L 42.032 10.636 Q 42.716 9.288 43.57 8.409 L 43.57 8.409 L 43.57 8.409 Q 44.425 7.53 45.479 7.101 L 45.479 7.101 L 45.479 7.101 Q 46.534 6.671 47.862 6.671 L 47.862 6.671 L 47.862 6.671 Q 48.478 6.671 48.756 6.861 L 48.756 6.861 L 48.756 6.861 Q 49.034 7.052 49.034 7.394 L 49.034 7.394 L 49.034 7.394 Q 49.034 7.862 48.619 8.526 L 48.619 8.526 L 48.619 8.526 Q 48.204 9.19 47.457 9.996 L 47.457 9.996 L 47.457 9.996 Q 46.71 10.802 45.67 11.705 L 45.67 11.705 L 45.67 11.705 Q 44.63 12.608 43.37 13.556 L 43.37 13.556 L 43.37 13.556 Q 43.995 13.497 44.64 13.448 L 44.64 13.448 L 45.909 13.341 L 45.909 13.341 Q 46.534 13.292 47.135 13.233 L 47.135 13.233 L 47.135 13.233 Q 47.735 13.175 48.282 13.106 L 48.282 13.106 L 48.282 13.106 Q 48.39 13.077 48.438 13.023 L 48.438 13.023 L 48.438 13.023 Q 48.487 12.97 48.604 12.97 L 48.604 12.97 L 48.604 12.97 Q 48.644 12.97 48.702 12.989 Z  M 58.897 17.647 L 58.897 17.647 L 58.897 17.647 Q 57.384 18.517 56.329 19.156 L 56.329 19.156 L 56.329 19.156 Q 55.274 19.796 54.532 20.211 L 54.532 20.211 L 54.532 20.211 Q 53.79 20.626 53.277 20.826 L 53.277 20.826 L 53.277 20.826 Q 52.765 21.026 52.345 21.026 L 52.345 21.026 L 52.345 21.026 Q 51.935 21.026 51.646 20.929 L 51.646 20.929 L 51.646 20.929 Q 51.358 20.831 51.173 20.665 L 51.173 20.665 L 51.173 20.665 Q 50.987 20.499 50.904 20.265 L 50.904 20.265 L 50.904 20.265 Q 50.821 20.03 50.821 19.757 L 50.821 19.757 L 50.821 19.757 Q 50.821 19.552 50.909 19.337 L 50.909 19.337 L 50.909 19.337 Q 50.997 19.122 51.129 18.897 L 51.129 18.897 L 51.129 18.897 Q 51.261 18.673 51.407 18.424 L 51.407 18.424 L 51.407 18.424 Q 51.554 18.175 51.681 17.892 L 51.681 17.892 L 53.165 14.571 L 47.921 17.647 L 47.921 17.647 Q 47.794 17.696 47.745 17.696 L 47.745 17.696 L 47.745 17.696 Q 47.628 17.696 47.535 17.618 L 47.535 17.618 L 47.535 17.618 Q 47.442 17.54 47.442 17.413 L 47.442 17.413 L 47.442 17.413 Q 47.442 17.296 47.545 17.149 L 47.545 17.149 L 47.545 17.149 Q 47.647 17.003 47.921 16.837 L 47.921 16.837 L 50.45 15.362 L 50.45 15.362 Q 50.948 15.069 51.456 14.776 L 51.456 14.776 L 51.456 14.776 Q 51.964 14.483 52.408 14.229 L 52.408 14.229 L 52.408 14.229 Q 52.853 13.976 53.209 13.775 L 53.209 13.775 L 53.209 13.775 Q 53.565 13.575 53.761 13.468 L 53.761 13.468 L 55.021 13.468 L 55.021 13.468 Q 55.06 13.497 55.089 13.565 L 55.089 13.565 L 55.089 13.565 Q 55.118 13.634 55.118 13.771 L 55.118 13.771 L 55.118 13.771 Q 55.118 14.024 54.972 14.488 L 54.972 14.488 L 54.972 14.488 Q 54.825 14.952 54.605 15.528 L 54.605 15.528 L 54.605 15.528 Q 54.386 16.104 54.117 16.734 L 54.117 16.734 L 54.117 16.734 Q 53.849 17.364 53.614 17.931 L 53.614 17.931 L 53.614 17.931 Q 53.38 18.487 53.126 19.044 L 53.126 19.044 L 53.126 19.044 Q 52.872 19.601 52.618 20.187 L 52.618 20.187 L 52.618 20.187 Q 52.882 20.187 53.453 19.923 L 53.453 19.923 L 53.453 19.923 Q 54.024 19.659 54.84 19.205 L 54.84 19.205 L 54.84 19.205 Q 55.655 18.751 56.686 18.141 L 56.686 18.141 L 56.686 18.141 Q 57.716 17.53 58.897 16.837 L 58.897 16.837 L 58.897 16.837 Q 58.937 16.798 59.044 16.798 L 59.044 16.798 L 59.044 16.798 Q 59.161 16.798 59.264 16.876 L 59.264 16.876 L 59.264 16.876 Q 59.366 16.954 59.366 17.091 L 59.366 17.091 L 59.366 17.091 Q 59.366 17.208 59.264 17.35 L 59.264 17.35 L 59.264 17.35 Q 59.161 17.491 58.897 17.647 Z  M 55.597 11.866 L 56.202 10.05 L 56.202 10.05 Q 56.261 10.05 56.422 10.055 L 56.422 10.055 L 56.422 10.055 Q 56.583 10.06 56.788 10.079 L 56.788 10.079 L 56.788 10.079 Q 56.993 10.099 57.218 10.143 L 57.218 10.143 L 57.218 10.143 Q 57.442 10.187 57.628 10.27 L 57.628 10.27 L 57.628 10.27 Q 57.813 10.353 57.94 10.479 L 57.94 10.479 L 57.94 10.479 Q 58.067 10.606 58.077 10.792 L 58.077 10.792 L 56.661 11.866 L 56.017 12.169 L 56.017 12.169 Q 55.841 12.169 55.743 12.071 L 55.743 12.071 L 55.743 12.071 Q 55.646 11.974 55.597 11.866 L 55.597 11.866 L 55.597 11.866 Z  M 65.46 14.63 L 65.46 14.63 L 65.46 14.63 Q 65.46 15.04 65.519 15.235 L 65.519 15.235 L 65.519 15.235 Q 65.577 15.431 65.65 15.582 L 65.65 15.582 L 65.65 15.582 Q 65.724 15.733 65.787 15.914 L 65.787 15.914 L 65.787 15.914 Q 65.851 16.095 65.851 16.476 L 65.851 16.476 L 65.851 16.476 Q 65.851 16.739 65.797 17.066 L 65.797 17.066 L 65.797 17.066 Q 65.743 17.394 65.597 17.74 L 65.597 17.74 L 65.597 17.74 Q 65.45 18.087 65.187 18.424 L 65.187 18.424 L 65.187 18.424 Q 64.923 18.761 64.513 19.024 L 64.513 19.024 L 68.341 16.837 L 68.341 16.837 Q 68.409 16.798 68.478 16.798 L 68.478 16.798 L 68.478 16.798 Q 68.585 16.798 68.668 16.881 L 68.668 16.881 L 68.668 16.881 Q 68.751 16.964 68.751 17.101 L 68.751 17.101 L 68.751 17.101 Q 68.751 17.208 68.658 17.364 L 68.658 17.364 L 68.658 17.364 Q 68.565 17.521 68.341 17.647 L 68.341 17.647 L 68.341 17.647 Q 67.14 18.331 66.275 18.834 L 66.275 18.834 L 66.275 18.834 Q 65.411 19.337 64.801 19.698 L 64.801 19.698 L 64.801 19.698 Q 64.19 20.06 63.8 20.299 L 63.8 20.299 L 63.8 20.299 Q 63.409 20.538 63.146 20.694 L 63.146 20.694 L 63.146 20.694 Q 62.677 20.978 62.257 21.075 L 62.257 21.075 L 62.257 21.075 Q 61.837 21.173 61.427 21.173 L 61.427 21.173 L 61.427 21.173 Q 61.114 21.173 60.973 21.065 L 60.973 21.065 L 60.973 21.065 Q 60.831 20.958 60.836 20.826 L 60.836 20.826 L 60.836 20.826 Q 60.841 20.694 60.987 20.582 L 60.987 20.582 L 60.987 20.582 Q 61.134 20.47 61.407 20.47 L 61.407 20.47 L 61.407 20.47 Q 61.886 20.47 62.335 20.143 L 62.335 20.143 L 62.335 20.143 Q 62.784 19.815 63.131 19.254 L 63.131 19.254 L 63.131 19.254 Q 63.478 18.692 63.688 17.94 L 63.688 17.94 L 63.688 17.94 Q 63.897 17.188 63.897 16.349 L 63.897 16.349 L 63.897 16.349 Q 63.897 16.222 63.951 15.86 L 63.951 15.86 L 63.951 15.86 Q 64.005 15.499 64.122 15.079 L 64.122 15.079 L 64.122 15.079 Q 64.239 14.659 64.43 14.259 L 64.43 14.259 L 64.43 14.259 Q 64.62 13.858 64.884 13.653 L 64.884 13.653 L 58.897 17.647 L 58.897 17.647 Q 58.8 17.716 58.692 17.716 L 58.692 17.716 L 58.692 17.716 Q 58.585 17.716 58.517 17.638 L 58.517 17.638 L 58.517 17.638 Q 58.448 17.56 58.448 17.442 L 58.448 17.442 L 58.448 17.442 Q 58.448 17.306 58.551 17.14 L 58.551 17.14 L 58.551 17.14 Q 58.653 16.974 58.897 16.837 L 58.897 16.837 L 58.897 16.837 Q 60.47 15.772 61.539 15.064 L 61.539 15.064 L 61.539 15.064 Q 62.608 14.356 63.282 13.917 L 63.282 13.917 L 64.649 12.989 L 64.649 12.989 Q 64.952 12.862 65.284 12.789 L 65.284 12.789 L 65.284 12.789 Q 65.616 12.716 65.899 12.716 L 65.899 12.716 L 65.899 12.716 Q 66.212 12.716 66.412 12.818 L 66.412 12.818 L 66.412 12.818 Q 66.612 12.921 66.612 13.146 L 66.612 13.146 L 66.612 13.146 Q 66.612 13.224 66.432 13.399 L 66.432 13.399 L 66.432 13.399 Q 66.251 13.575 66.036 13.795 L 66.036 13.795 L 66.036 13.795 Q 65.821 14.015 65.641 14.239 L 65.641 14.239 L 65.641 14.239 Q 65.46 14.464 65.46 14.63 Z  M 74.903 14.63 L 74.903 14.63 L 74.903 14.63 Q 74.903 15.04 74.962 15.235 L 74.962 15.235 L 74.962 15.235 Q 75.021 15.431 75.094 15.582 L 75.094 15.582 L 75.094 15.582 Q 75.167 15.733 75.23 15.914 L 75.23 15.914 L 75.23 15.914 Q 75.294 16.095 75.294 16.476 L 75.294 16.476 L 75.294 16.476 Q 75.294 16.739 75.24 17.066 L 75.24 17.066 L 75.24 17.066 Q 75.187 17.394 75.04 17.74 L 75.04 17.74 L 75.04 17.74 Q 74.894 18.087 74.63 18.424 L 74.63 18.424 L 74.63 18.424 Q 74.366 18.761 73.956 19.024 L 73.956 19.024 L 77.784 16.837 L 77.784 16.837 Q 77.853 16.798 77.921 16.798 L 77.921 16.798 L 77.921 16.798 Q 78.028 16.798 78.111 16.881 L 78.111 16.881 L 78.111 16.881 Q 78.194 16.964 78.194 17.101 L 78.194 17.101 L 78.194 17.101 Q 78.194 17.208 78.102 17.364 L 78.102 17.364 L 78.102 17.364 Q 78.009 17.521 77.784 17.647 L 77.784 17.647 L 77.784 17.647 Q 76.583 18.331 75.719 18.834 L 75.719 18.834 L 75.719 18.834 Q 74.854 19.337 74.244 19.698 L 74.244 19.698 L 74.244 19.698 Q 73.634 20.06 73.243 20.299 L 73.243 20.299 L 73.243 20.299 Q 72.853 20.538 72.589 20.694 L 72.589 20.694 L 72.589 20.694 Q 72.12 20.978 71.7 21.075 L 71.7 21.075 L 71.7 21.075 Q 71.28 21.173 70.87 21.173 L 70.87 21.173 L 70.87 21.173 Q 70.558 21.173 70.416 21.065 L 70.416 21.065 L 70.416 21.065 Q 70.274 20.958 70.279 20.826 L 70.279 20.826 L 70.279 20.826 Q 70.284 20.694 70.431 20.582 L 70.431 20.582 L 70.431 20.582 Q 70.577 20.47 70.851 20.47 L 70.851 20.47 L 70.851 20.47 Q 71.329 20.47 71.778 20.143 L 71.778 20.143 L 71.778 20.143 Q 72.228 19.815 72.574 19.254 L 72.574 19.254 L 72.574 19.254 Q 72.921 18.692 73.131 17.94 L 73.131 17.94 L 73.131 17.94 Q 73.341 17.188 73.341 16.349 L 73.341 16.349 L 73.341 16.349 Q 73.341 16.222 73.395 15.86 L 73.395 15.86 L 73.395 15.86 Q 73.448 15.499 73.565 15.079 L 73.565 15.079 L 73.565 15.079 Q 73.683 14.659 73.873 14.259 L 73.873 14.259 L 73.873 14.259 Q 74.063 13.858 74.327 13.653 L 74.327 13.653 L 68.341 17.647 L 68.341 17.647 Q 68.243 17.716 68.136 17.716 L 68.136 17.716 L 68.136 17.716 Q 68.028 17.716 67.96 17.638 L 67.96 17.638 L 67.96 17.638 Q 67.892 17.56 67.892 17.442 L 67.892 17.442 L 67.892 17.442 Q 67.892 17.306 67.994 17.14 L 67.994 17.14 L 67.994 17.14 Q 68.097 16.974 68.341 16.837 L 68.341 16.837 L 68.341 16.837 Q 69.913 15.772 70.982 15.064 L 70.982 15.064 L 70.982 15.064 Q 72.052 14.356 72.726 13.917 L 72.726 13.917 L 74.093 12.989 L 74.093 12.989 Q 74.396 12.862 74.728 12.789 L 74.728 12.789 L 74.728 12.789 Q 75.06 12.716 75.343 12.716 L 75.343 12.716 L 75.343 12.716 Q 75.655 12.716 75.855 12.818 L 75.855 12.818 L 75.855 12.818 Q 76.056 12.921 76.056 13.146 L 76.056 13.146 L 76.056 13.146 Q 76.056 13.224 75.875 13.399 L 75.875 13.399 L 75.875 13.399 Q 75.694 13.575 75.479 13.795 L 75.479 13.795 L 75.479 13.795 Q 75.265 14.015 75.084 14.239 L 75.084 14.239 L 75.084 14.239 Q 74.903 14.464 74.903 14.63 Z  M 78.8 17.052 L 77.784 17.647 L 77.784 17.647 Q 77.687 17.716 77.56 17.716 L 77.56 17.716 L 77.56 17.716 Q 77.433 17.716 77.354 17.643 L 77.354 17.643 L 77.354 17.643 Q 77.276 17.569 77.276 17.452 L 77.276 17.452 L 77.276 17.452 Q 77.276 17.325 77.389 17.164 L 77.389 17.164 L 77.389 17.164 Q 77.501 17.003 77.784 16.837 L 77.784 16.837 L 80.255 15.382 L 80.255 15.382 Q 80.528 14.61 80.963 14.049 L 80.963 14.049 L 80.963 14.049 Q 81.397 13.487 81.92 13.121 L 81.92 13.121 L 81.92 13.121 Q 82.442 12.755 83.014 12.574 L 83.014 12.574 L 83.014 12.574 Q 83.585 12.394 84.122 12.394 L 84.122 12.394 L 84.122 12.394 Q 84.669 12.394 85.025 12.682 L 85.025 12.682 L 85.025 12.682 Q 85.382 12.97 85.382 13.575 L 85.382 13.575 L 85.382 13.575 Q 85.382 13.946 85.113 14.352 L 85.113 14.352 L 85.113 14.352 Q 84.845 14.757 84.381 15.152 L 84.381 15.152 L 84.381 15.152 Q 83.917 15.548 83.292 15.89 L 83.292 15.89 L 83.292 15.89 Q 82.667 16.231 81.964 16.466 L 81.964 16.466 L 81.964 16.466 Q 81.964 16.935 81.949 17.354 L 81.949 17.354 L 81.949 17.354 Q 81.935 17.774 81.935 18.146 L 81.935 18.146 L 81.935 18.146 Q 81.935 18.458 81.954 18.717 L 81.954 18.717 L 81.954 18.717 Q 81.974 18.976 82.037 19.156 L 82.037 19.156 L 82.037 19.156 Q 82.101 19.337 82.213 19.439 L 82.213 19.439 L 82.213 19.439 Q 82.325 19.542 82.501 19.542 L 82.501 19.542 L 82.501 19.542 Q 82.774 19.542 83.16 19.322 L 83.16 19.322 L 83.16 19.322 Q 83.546 19.103 84.132 18.761 L 84.132 18.761 L 84.132 18.761 Q 84.659 18.448 85.479 17.979 L 85.479 17.979 L 85.479 17.979 Q 86.3 17.511 87.481 16.837 L 87.481 16.837 L 87.481 16.837 Q 87.521 16.808 87.589 16.808 L 87.589 16.808 L 87.589 16.808 Q 87.696 16.808 87.779 16.9 L 87.779 16.9 L 87.779 16.9 Q 87.862 16.993 87.862 17.13 L 87.862 17.13 L 87.862 17.13 Q 87.862 17.247 87.779 17.384 L 87.779 17.384 L 87.779 17.384 Q 87.696 17.521 87.481 17.647 L 87.481 17.647 L 87.481 17.647 Q 86.515 18.224 85.606 18.814 L 85.606 18.814 L 85.606 18.814 Q 84.698 19.405 83.893 19.889 L 83.893 19.889 L 83.893 19.889 Q 83.087 20.372 82.403 20.68 L 82.403 20.68 L 82.403 20.68 Q 81.72 20.987 81.212 20.987 L 81.212 20.987 L 81.212 20.987 Q 80.87 20.987 80.611 20.841 L 80.611 20.841 L 80.611 20.841 Q 80.353 20.694 80.172 20.372 L 80.172 20.372 L 80.172 20.372 Q 79.991 20.05 79.898 19.527 L 79.898 19.527 L 79.898 19.527 Q 79.806 19.005 79.806 18.253 L 79.806 18.253 L 79.806 18.253 Q 79.806 18.136 79.82 17.877 L 79.82 17.877 L 79.82 17.877 Q 79.835 17.618 79.869 17.32 L 79.869 17.32 L 79.869 17.32 Q 79.903 17.022 79.952 16.739 L 79.952 16.739 L 79.952 16.739 Q 80.001 16.456 80.069 16.3 L 80.069 16.3 L 80.069 16.3 Q 80.001 16.339 79.869 16.417 L 79.869 16.417 L 79.869 16.417 Q 79.737 16.495 79.562 16.598 L 79.562 16.598 L 79.562 16.598 Q 79.386 16.7 79.19 16.817 L 79.19 16.817 L 79.19 16.817 Q 78.995 16.935 78.8 17.052 L 78.8 17.052 L 78.8 17.052 Z  M 84.327 13.653 L 84.327 13.653 L 84.327 13.653 Q 84.347 13.595 84.347 13.526 L 84.347 13.526 L 84.347 13.526 Q 84.347 13.282 84.264 13.165 L 84.264 13.165 L 84.264 13.165 Q 84.181 13.048 83.985 13.048 L 83.985 13.048 L 83.985 13.048 Q 83.761 13.048 83.468 13.219 L 83.468 13.219 L 83.468 13.219 Q 83.175 13.39 82.896 13.722 L 82.896 13.722 L 82.896 13.722 Q 82.618 14.054 82.398 14.552 L 82.398 14.552 L 82.398 14.552 Q 82.179 15.05 82.101 15.694 L 82.101 15.694 L 82.101 15.694 Q 82.501 15.489 82.882 15.221 L 82.882 15.221 L 82.882 15.221 Q 83.263 14.952 83.57 14.674 L 83.57 14.674 L 83.57 14.674 Q 83.878 14.396 84.078 14.127 L 84.078 14.127 L 84.078 14.127 Q 84.278 13.858 84.327 13.653 Z  M 98.429 13.81 L 98.429 13.81 L 98.429 13.81 Q 98.429 14.054 98.341 14.381 L 98.341 14.381 L 98.341 14.381 Q 98.253 14.708 98.116 15.074 L 98.116 15.074 L 98.116 15.074 Q 97.979 15.44 97.823 15.821 L 97.823 15.821 L 97.823 15.821 Q 97.667 16.202 97.53 16.559 L 97.53 16.559 L 97.53 16.559 Q 97.394 16.915 97.306 17.228 L 97.306 17.228 L 97.306 17.228 Q 97.218 17.54 97.218 17.755 L 97.218 17.755 L 97.218 17.755 Q 97.218 17.94 97.301 18.048 L 97.301 18.048 L 97.301 18.048 Q 97.384 18.155 97.569 18.155 L 97.569 18.155 L 97.569 18.155 Q 97.706 18.155 97.955 18.053 L 97.955 18.053 L 97.955 18.053 Q 98.204 17.95 98.541 17.77 L 98.541 17.77 L 98.541 17.77 Q 98.878 17.589 99.283 17.35 L 99.283 17.35 L 99.283 17.35 Q 99.688 17.11 100.138 16.837 L 100.138 16.837 L 100.138 16.837 Q 100.235 16.778 100.333 16.778 L 100.333 16.778 L 100.333 16.778 Q 100.44 16.778 100.523 16.856 L 100.523 16.856 L 100.523 16.856 Q 100.606 16.935 100.606 17.052 L 100.606 17.052 L 100.606 17.052 Q 100.606 17.179 100.499 17.32 L 100.499 17.32 L 100.499 17.32 Q 100.392 17.462 100.138 17.647 L 100.138 17.647 L 100.138 17.647 Q 98.868 18.595 97.818 19.112 L 97.818 19.112 L 97.818 19.112 Q 96.769 19.63 96.144 19.63 L 96.144 19.63 L 96.144 19.63 Q 95.636 19.63 95.343 19.474 L 95.343 19.474 L 95.343 19.474 Q 95.05 19.317 95.05 18.985 L 95.05 18.985 L 95.05 18.985 Q 95.05 18.673 95.318 18.194 L 95.318 18.194 L 95.318 18.194 Q 95.587 17.716 96.202 17.062 L 96.202 17.062 L 96.202 17.062 Q 96.437 16.671 96.573 16.207 L 96.573 16.207 L 96.573 16.207 Q 96.71 15.743 96.773 15.299 L 96.773 15.299 L 96.773 15.299 Q 96.837 14.854 96.856 14.479 L 96.856 14.479 L 96.856 14.479 Q 96.876 14.103 96.876 13.878 L 96.876 13.878 L 96.876 13.878 Q 96.876 13.507 96.754 13.307 L 96.754 13.307 L 96.754 13.307 Q 96.632 13.106 96.349 13.106 L 96.349 13.106 L 96.349 13.106 Q 96.036 13.106 95.738 13.385 L 95.738 13.385 L 95.738 13.385 Q 95.44 13.663 95.143 14.151 L 95.143 14.151 L 95.143 14.151 Q 94.845 14.64 94.552 15.304 L 94.552 15.304 L 94.552 15.304 Q 94.259 15.968 93.951 16.739 L 93.951 16.739 L 93.951 16.739 Q 93.644 17.511 93.321 18.351 L 93.321 18.351 L 93.321 18.351 Q 92.999 19.19 92.647 20.04 L 92.647 20.04 L 92.647 20.04 Q 92.589 20.206 92.501 20.382 L 92.501 20.382 L 92.501 20.382 Q 92.413 20.558 92.301 20.709 L 92.301 20.709 L 92.301 20.709 Q 92.188 20.86 92.047 20.958 L 92.047 20.958 L 92.047 20.958 Q 91.905 21.056 91.749 21.056 L 91.749 21.056 L 91.749 21.056 Q 91.378 21.056 91.192 20.89 L 91.192 20.89 L 91.192 20.89 Q 91.007 20.724 91.007 20.343 L 91.007 20.343 L 91.007 20.343 Q 91.007 20.235 91.021 20.118 L 91.021 20.118 L 91.021 20.118 Q 91.036 20.001 91.114 19.845 L 91.114 19.845 L 92.999 16.065 L 92.999 16.065 Q 93.37 15.108 93.795 14.483 L 93.795 14.483 L 93.795 14.483 Q 94.22 13.858 94.562 13.478 L 94.562 13.478 L 94.562 13.478 Q 93.761 13.956 92.96 14.435 L 92.96 14.435 L 92.96 14.435 Q 92.159 14.913 91.417 15.357 L 91.417 15.357 L 91.417 15.357 Q 90.675 15.802 90.016 16.197 L 90.016 16.197 L 90.016 16.197 Q 89.356 16.593 88.839 16.896 L 88.839 16.896 L 88.839 16.896 Q 88.321 17.198 87.97 17.394 L 87.97 17.394 L 87.97 17.394 Q 87.618 17.589 87.481 17.647 L 87.481 17.647 L 87.481 17.647 Q 87.403 17.696 87.315 17.696 L 87.315 17.696 L 87.315 17.696 Q 87.208 17.696 87.135 17.618 L 87.135 17.618 L 87.135 17.618 Q 87.062 17.54 87.062 17.413 L 87.062 17.413 L 87.062 17.413 Q 87.062 17.276 87.154 17.115 L 87.154 17.115 L 87.154 17.115 Q 87.247 16.954 87.481 16.817 L 87.481 16.817 L 90.089 15.294 L 90.089 15.294 Q 90.597 14.991 91.114 14.684 L 91.114 14.684 L 91.114 14.684 Q 91.632 14.376 92.086 14.112 L 92.086 14.112 L 92.086 14.112 Q 92.54 13.849 92.892 13.644 L 92.892 13.644 L 92.892 13.644 Q 93.243 13.438 93.429 13.331 L 93.429 13.331 L 93.429 13.331 Q 93.897 13.058 94.342 12.862 L 94.342 12.862 L 94.342 12.862 Q 94.786 12.667 95.226 12.54 L 95.226 12.54 L 95.226 12.54 Q 95.665 12.413 96.119 12.345 L 96.119 12.345 L 96.119 12.345 Q 96.573 12.276 97.071 12.247 L 97.071 12.247 L 97.071 12.247 Q 97.286 12.247 97.525 12.379 L 97.525 12.379 L 97.525 12.379 Q 97.765 12.511 97.965 12.73 L 97.965 12.73 L 97.965 12.73 Q 98.165 12.95 98.297 13.229 L 98.297 13.229 L 98.297 13.229 Q 98.429 13.507 98.429 13.81 Z  M 111.114 17.647 L 111.114 17.647 L 111.114 17.647 Q 109.601 18.517 108.546 19.156 L 108.546 19.156 L 108.546 19.156 Q 107.491 19.796 106.749 20.211 L 106.749 20.211 L 106.749 20.211 Q 106.007 20.626 105.494 20.826 L 105.494 20.826 L 105.494 20.826 Q 104.981 21.026 104.562 21.026 L 104.562 21.026 L 104.562 21.026 Q 104.151 21.026 103.863 20.929 L 103.863 20.929 L 103.863 20.929 Q 103.575 20.831 103.39 20.665 L 103.39 20.665 L 103.39 20.665 Q 103.204 20.499 103.121 20.265 L 103.121 20.265 L 103.121 20.265 Q 103.038 20.03 103.038 19.757 L 103.038 19.757 L 103.038 19.757 Q 103.038 19.552 103.126 19.337 L 103.126 19.337 L 103.126 19.337 Q 103.214 19.122 103.346 18.897 L 103.346 18.897 L 103.346 18.897 Q 103.478 18.673 103.624 18.424 L 103.624 18.424 L 103.624 18.424 Q 103.771 18.175 103.897 17.892 L 103.897 17.892 L 105.382 14.571 L 100.138 17.647 L 100.138 17.647 Q 100.011 17.696 99.962 17.696 L 99.962 17.696 L 99.962 17.696 Q 99.845 17.696 99.752 17.618 L 99.752 17.618 L 99.752 17.618 Q 99.659 17.54 99.659 17.413 L 99.659 17.413 L 99.659 17.413 Q 99.659 17.296 99.762 17.149 L 99.762 17.149 L 99.762 17.149 Q 99.864 17.003 100.138 16.837 L 100.138 16.837 L 102.667 15.362 L 102.667 15.362 Q 103.165 15.069 103.673 14.776 L 103.673 14.776 L 103.673 14.776 Q 104.181 14.483 104.625 14.229 L 104.625 14.229 L 104.625 14.229 Q 105.069 13.976 105.426 13.775 L 105.426 13.775 L 105.426 13.775 Q 105.782 13.575 105.978 13.468 L 105.978 13.468 L 107.237 13.468 L 107.237 13.468 Q 107.276 13.497 107.306 13.565 L 107.306 13.565 L 107.306 13.565 Q 107.335 13.634 107.335 13.771 L 107.335 13.771 L 107.335 13.771 Q 107.335 14.024 107.188 14.488 L 107.188 14.488 L 107.188 14.488 Q 107.042 14.952 106.822 15.528 L 106.822 15.528 L 106.822 15.528 Q 106.603 16.104 106.334 16.734 L 106.334 16.734 L 106.334 16.734 Q 106.065 17.364 105.831 17.931 L 105.831 17.931 L 105.831 17.931 Q 105.597 18.487 105.343 19.044 L 105.343 19.044 L 105.343 19.044 Q 105.089 19.601 104.835 20.187 L 104.835 20.187 L 104.835 20.187 Q 105.099 20.187 105.67 19.923 L 105.67 19.923 L 105.67 19.923 Q 106.241 19.659 107.057 19.205 L 107.057 19.205 L 107.057 19.205 Q 107.872 18.751 108.902 18.141 L 108.902 18.141 L 108.902 18.141 Q 109.933 17.53 111.114 16.837 L 111.114 16.837 L 111.114 16.837 Q 111.153 16.798 111.261 16.798 L 111.261 16.798 L 111.261 16.798 Q 111.378 16.798 111.48 16.876 L 111.48 16.876 L 111.48 16.876 Q 111.583 16.954 111.583 17.091 L 111.583 17.091 L 111.583 17.091 Q 111.583 17.208 111.48 17.35 L 111.48 17.35 L 111.48 17.35 Q 111.378 17.491 111.114 17.647 Z  M 107.813 11.866 L 108.419 10.05 L 108.419 10.05 Q 108.478 10.05 108.639 10.055 L 108.639 10.055 L 108.639 10.055 Q 108.8 10.06 109.005 10.079 L 109.005 10.079 L 109.005 10.079 Q 109.21 10.099 109.435 10.143 L 109.435 10.143 L 109.435 10.143 Q 109.659 10.187 109.845 10.27 L 109.845 10.27 L 109.845 10.27 Q 110.03 10.353 110.157 10.479 L 110.157 10.479 L 110.157 10.479 Q 110.284 10.606 110.294 10.792 L 110.294 10.792 L 108.878 11.866 L 108.233 12.169 L 108.233 12.169 Q 108.058 12.169 107.96 12.071 L 107.96 12.071 L 107.96 12.071 Q 107.862 11.974 107.813 11.866 L 107.813 11.866 L 107.813 11.866 Z  M 112.13 17.052 L 111.114 17.647 L 111.114 17.647 Q 111.017 17.716 110.89 17.716 L 110.89 17.716 L 110.89 17.716 Q 110.763 17.716 110.685 17.643 L 110.685 17.643 L 110.685 17.643 Q 110.606 17.569 110.606 17.452 L 110.606 17.452 L 110.606 17.452 Q 110.606 17.325 110.719 17.164 L 110.719 17.164 L 110.719 17.164 Q 110.831 17.003 111.114 16.837 L 111.114 16.837 L 113.585 15.382 L 113.585 15.382 Q 113.858 14.61 114.293 14.049 L 114.293 14.049 L 114.293 14.049 Q 114.728 13.487 115.25 13.121 L 115.25 13.121 L 115.25 13.121 Q 115.772 12.755 116.344 12.574 L 116.344 12.574 L 116.344 12.574 Q 116.915 12.394 117.452 12.394 L 117.452 12.394 L 117.452 12.394 Q 117.999 12.394 118.355 12.682 L 118.355 12.682 L 118.355 12.682 Q 118.712 12.97 118.712 13.575 L 118.712 13.575 L 118.712 13.575 Q 118.712 13.946 118.443 14.352 L 118.443 14.352 L 118.443 14.352 Q 118.175 14.757 117.711 15.152 L 117.711 15.152 L 117.711 15.152 Q 117.247 15.548 116.622 15.89 L 116.622 15.89 L 116.622 15.89 Q 115.997 16.231 115.294 16.466 L 115.294 16.466 L 115.294 16.466 Q 115.294 16.935 115.279 17.354 L 115.279 17.354 L 115.279 17.354 Q 115.265 17.774 115.265 18.146 L 115.265 18.146 L 115.265 18.146 Q 115.265 18.458 115.284 18.717 L 115.284 18.717 L 115.284 18.717 Q 115.304 18.976 115.367 19.156 L 115.367 19.156 L 115.367 19.156 Q 115.431 19.337 115.543 19.439 L 115.543 19.439 L 115.543 19.439 Q 115.655 19.542 115.831 19.542 L 115.831 19.542 L 115.831 19.542 Q 116.104 19.542 116.49 19.322 L 116.49 19.322 L 116.49 19.322 Q 116.876 19.103 117.462 18.761 L 117.462 18.761 L 117.462 18.761 Q 117.989 18.448 118.81 17.979 L 118.81 17.979 L 118.81 17.979 Q 119.63 17.511 120.812 16.837 L 120.812 16.837 L 120.812 16.837 Q 120.851 16.808 120.919 16.808 L 120.919 16.808 L 120.919 16.808 Q 121.026 16.808 121.109 16.9 L 121.109 16.9 L 121.109 16.9 Q 121.192 16.993 121.192 17.13 L 121.192 17.13 L 121.192 17.13 Q 121.192 17.247 121.109 17.384 L 121.109 17.384 L 121.109 17.384 Q 121.026 17.521 120.812 17.647 L 120.812 17.647 L 120.812 17.647 Q 119.845 18.224 118.937 18.814 L 118.937 18.814 L 118.937 18.814 Q 118.028 19.405 117.223 19.889 L 117.223 19.889 L 117.223 19.889 Q 116.417 20.372 115.733 20.68 L 115.733 20.68 L 115.733 20.68 Q 115.05 20.987 114.542 20.987 L 114.542 20.987 L 114.542 20.987 Q 114.2 20.987 113.941 20.841 L 113.941 20.841 L 113.941 20.841 Q 113.683 20.694 113.502 20.372 L 113.502 20.372 L 113.502 20.372 Q 113.321 20.05 113.229 19.527 L 113.229 19.527 L 113.229 19.527 Q 113.136 19.005 113.136 18.253 L 113.136 18.253 L 113.136 18.253 Q 113.136 18.136 113.15 17.877 L 113.15 17.877 L 113.15 17.877 Q 113.165 17.618 113.199 17.32 L 113.199 17.32 L 113.199 17.32 Q 113.233 17.022 113.282 16.739 L 113.282 16.739 L 113.282 16.739 Q 113.331 16.456 113.399 16.3 L 113.399 16.3 L 113.399 16.3 Q 113.331 16.339 113.199 16.417 L 113.199 16.417 L 113.199 16.417 Q 113.067 16.495 112.892 16.598 L 112.892 16.598 L 112.892 16.598 Q 112.716 16.7 112.521 16.817 L 112.521 16.817 L 112.521 16.817 Q 112.325 16.935 112.13 17.052 L 112.13 17.052 L 112.13 17.052 Z  M 117.657 13.653 L 117.657 13.653 L 117.657 13.653 Q 117.677 13.595 117.677 13.526 L 117.677 13.526 L 117.677 13.526 Q 117.677 13.282 117.594 13.165 L 117.594 13.165 L 117.594 13.165 Q 117.511 13.048 117.315 13.048 L 117.315 13.048 L 117.315 13.048 Q 117.091 13.048 116.798 13.219 L 116.798 13.219 L 116.798 13.219 Q 116.505 13.39 116.227 13.722 L 116.227 13.722 L 116.227 13.722 Q 115.948 14.054 115.729 14.552 L 115.729 14.552 L 115.729 14.552 Q 115.509 15.05 115.431 15.694 L 115.431 15.694 L 115.431 15.694 Q 115.831 15.489 116.212 15.221 L 116.212 15.221 L 116.212 15.221 Q 116.593 14.952 116.9 14.674 L 116.9 14.674 L 116.9 14.674 Q 117.208 14.396 117.408 14.127 L 117.408 14.127 L 117.408 14.127 Q 117.608 13.858 117.657 13.653 Z " fill-rule="evenodd" fill="rgb(255,255,255)"/><path d=" M 36.944 16.957 C 37.422 16.636 37.898 16.506 38.006 16.667 C 38.114 16.827 37.814 17.219 37.335 17.54 C 36.857 17.861 36.381 17.991 36.273 17.831 C 36.165 17.67 36.466 17.278 36.944 16.957 Z " fill="rgb(255,255,255)"/><path d=" M 47.618 17.008 C 48.096 16.686 48.572 16.556 48.68 16.717 C 48.788 16.878 48.488 17.269 48.009 17.59 C 47.531 17.912 47.055 18.042 46.947 17.881 C 46.839 17.72 47.14 17.329 47.618 17.008 Z " fill="rgb(255,255,255)"/><path d=" M 23.028 17.008 C 23.506 16.686 23.982 16.556 24.09 16.717 C 24.198 16.878 23.898 17.269 23.419 17.59 C 22.941 17.912 22.465 18.042 22.357 17.881 C 22.249 17.72 22.55 17.329 23.028 17.008 Z " fill="rgb(255,255,255)"/><path d=" M 58.77 16.906 C 59.248 16.585 59.724 16.455 59.832 16.615 C 59.94 16.776 59.64 17.168 59.161 17.489 C 58.683 17.81 58.207 17.94 58.099 17.779 C 57.991 17.619 58.292 17.227 58.77 16.906 Z " fill="rgb(255,255,255)"/><path d=" M 68.145 16.957 C 68.623 16.636 69.099 16.506 69.207 16.667 C 69.315 16.827 69.015 17.219 68.537 17.54 C 68.058 17.861 67.582 17.991 67.474 17.831 C 67.366 17.67 67.667 17.278 68.145 16.957 Z " fill="rgb(255,255,255)"/><path d=" M 77.588 16.957 C 78.067 16.636 78.543 16.506 78.651 16.667 C 78.759 16.827 78.458 17.219 77.98 17.54 C 77.502 17.861 77.026 17.991 76.918 17.831 C 76.81 17.67 77.11 17.278 77.588 16.957 Z " fill="rgb(255,255,255)"/><path d=" M 87.286 16.957 C 87.764 16.636 88.24 16.506 88.348 16.667 C 88.456 16.827 88.155 17.219 87.677 17.54 C 87.199 17.861 86.723 17.991 86.615 17.831 C 86.507 17.67 86.807 17.278 87.286 16.957 Z " fill="rgb(255,255,255)"/><path d=" M 99.942 16.957 C 100.42 16.636 100.896 16.506 101.004 16.667 C 101.112 16.827 100.812 17.219 100.333 17.54 C 99.855 17.861 99.379 17.991 99.271 17.831 C 99.163 17.67 99.464 17.278 99.942 16.957 Z " fill="rgb(255,255,255)"/><path d=" M 110.919 16.957 C 111.397 16.636 111.873 16.506 111.981 16.667 C 112.089 16.827 111.788 17.219 111.31 17.54 C 110.832 17.861 110.356 17.991 110.248 17.831 C 110.14 17.67 110.44 17.278 110.919 16.957 Z " fill="rgb(255,255,255)"/></g></svg>