<?xml version="1.0" standalone="no"?><!-- Generator: Gravit.io --><svg xmlns="http://www.w3.org/2000/svg" xmlns:xlink="http://www.w3.org/1999/xlink" style="isolation:isolate" viewBox="0 0 125 56" width="125" height="56"><defs><clipPath id="_clipPath_muf3luBqRJUNIOvY13GCaYZ9IVRHYe8s"><rect width="125" height="56"/></clipPath></defs><g clip-path="url(#_clipPath_muf3luBqRJUNIOvY13GCaYZ9IVRHYe8s)"><path d=" M 23.351 44.837 L 23.351 44.837 L 23.351 44.837 Q 23.468 44.778 23.565 44.778 L 23.565 44.778 L 23.565 44.778 Q 23.673 44.778 23.731 44.852 L 23.731 44.852 L 23.731 44.852 Q 23.79 44.925 23.79 45.032 L 23.79 45.032 L 23.79 45.032 Q 23.79 45.169 23.683 45.34 L 23.683 45.34 L 23.683 45.34 Q 23.575 45.511 23.351 45.647 L 23.351 45.647 L 23.351 45.647 Q 22.647 46.058 21.92 46.39 L 21.92 46.39 L 21.92 46.39 Q 21.192 46.722 20.46 47.024 L 20.46 47.024 L 20.46 47.024 Q 19.874 47.288 19.22 47.537 L 19.22 47.537 L 19.22 47.537 Q 18.565 47.786 17.887 47.977 L 17.887 47.977 L 17.887 47.977 Q 17.208 48.167 16.52 48.284 L 16.52 48.284 L 16.52 48.284 Q 15.831 48.401 15.187 48.401 L 15.187 48.401 L 15.187 48.401 Q 14.923 48.401 14.679 48.377 L 14.679 48.377 L 14.679 48.377 Q 14.435 48.353 14.2 48.294 L 14.2 48.294 L 14.2 48.294 Q 14.054 48.646 13.844 49.09 L 13.844 49.09 L 13.844 49.09 Q 13.634 49.534 13.409 49.969 L 13.409 49.969 L 13.409 49.969 Q 13.185 50.403 12.979 50.779 L 12.979 50.779 L 12.979 50.779 Q 12.774 51.155 12.657 51.36 L 12.657 51.36 L 12.657 51.36 Q 12.481 51.771 12.105 51.956 L 12.105 51.956 L 12.105 51.956 Q 11.729 52.142 11.31 52.142 L 11.31 52.142 L 11.31 52.142 Q 11.095 52.142 10.895 52.078 L 10.895 52.078 L 10.895 52.078 Q 10.694 52.015 10.538 51.897 L 10.538 51.897 L 10.538 51.897 Q 10.382 51.78 10.289 51.614 L 10.289 51.614 L 10.289 51.614 Q 10.196 51.448 10.196 51.233 L 10.196 51.233 L 10.196 51.233 Q 10.196 51.106 10.235 51.038 L 10.235 51.038 L 10.235 51.038 Q 10.353 50.774 10.577 50.306 L 10.577 50.306 L 10.577 50.306 Q 10.802 49.837 11.065 49.28 L 11.065 49.28 L 11.065 49.28 Q 11.329 48.724 11.593 48.133 L 11.593 48.133 L 11.593 48.133 Q 11.856 47.542 12.052 47.044 L 12.052 47.044 L 12.052 47.044 Q 11.974 46.966 11.959 46.893 L 11.959 46.893 L 11.959 46.893 Q 11.944 46.819 11.944 46.741 L 11.944 46.741 L 11.944 46.741 Q 11.944 46.595 12.052 46.448 L 12.052 46.448 L 12.052 46.448 Q 12.159 46.302 12.403 46.136 L 12.403 46.136 L 12.403 46.136 Q 12.794 45.354 13.185 44.598 L 13.185 44.598 L 13.185 44.598 Q 13.575 43.841 13.907 43.187 L 13.907 43.187 L 13.907 43.187 Q 14.239 42.532 14.488 42.015 L 14.488 42.015 L 14.488 42.015 Q 14.737 41.497 14.845 41.204 L 14.845 41.204 L 14.845 41.204 Q 14.21 41.194 13.683 40.994 L 13.683 40.994 L 13.683 40.994 Q 13.155 40.794 12.779 40.447 L 12.779 40.447 L 12.779 40.447 Q 12.403 40.101 12.193 39.622 L 12.193 39.622 L 12.193 39.622 Q 11.983 39.144 11.983 38.567 L 11.983 38.567 L 11.983 38.567 Q 11.983 37.796 12.291 37.161 L 12.291 37.161 L 12.291 37.161 Q 12.599 36.526 13.097 36.077 L 13.097 36.077 L 13.097 36.077 Q 13.595 35.628 14.225 35.379 L 14.225 35.379 L 14.225 35.379 Q 14.854 35.13 15.489 35.13 L 15.489 35.13 L 15.489 35.13 Q 16.339 35.13 16.866 35.408 L 16.866 35.408 L 16.866 35.408 Q 17.394 35.687 17.691 36.136 L 17.691 36.136 L 17.691 36.136 Q 17.989 36.585 18.092 37.151 L 18.092 37.151 L 18.092 37.151 Q 18.194 37.718 18.194 38.284 L 18.194 38.284 L 18.194 38.284 Q 18.194 38.655 18.087 39.002 L 18.087 39.002 L 18.087 39.002 Q 17.979 39.349 17.857 39.646 L 17.857 39.646 L 17.857 39.646 Q 17.735 39.944 17.628 40.184 L 17.628 40.184 L 17.628 40.184 Q 17.521 40.423 17.521 40.579 L 17.521 40.579 L 17.521 40.628 L 17.521 40.628 Q 17.989 40.569 18.573 40.511 L 18.573 40.511 L 18.573 40.511 Q 19.157 40.452 20.131 40.354 L 20.131 40.354 L 20.131 40.354 Q 21.104 40.257 22.027 40.101 L 22.027 40.101 L 22.027 40.101 Q 22.95 39.944 23.849 39.7 L 23.849 39.7 L 23.849 39.7 Q 24.747 39.456 25.558 39.104 L 25.558 39.104 L 25.558 39.104 Q 26.368 38.753 26.983 38.255 L 26.983 38.255 L 26.983 38.255 Q 27.599 37.757 27.96 37.093 L 27.96 37.093 L 27.96 37.093 Q 28.321 36.429 28.321 35.569 L 28.321 35.569 L 28.321 35.569 Q 28.321 34.944 27.813 34.412 L 27.813 34.412 L 27.813 34.412 Q 27.306 33.88 26.456 33.45 L 26.456 33.45 L 26.456 33.45 Q 25.606 33.021 24.498 32.698 L 24.498 32.698 L 24.498 32.698 Q 23.39 32.376 22.197 32.211 L 22.197 32.211 L 22.197 32.211 Q 21.003 32.047 19.824 31.884 L 19.824 31.884 L 19.824 31.884 Q 18.644 31.722 17.628 31.722 L 17.628 31.722 L 17.628 31.722 Q 16.485 31.722 15.196 31.766 L 15.196 31.766 L 15.196 31.766 Q 13.907 31.81 12.659 32.036 L 12.659 32.036 L 12.659 32.036 Q 11.411 32.262 10.237 32.475 L 10.237 32.475 L 10.237 32.475 Q 9.063 32.688 8.18 33.191 L 8.18 33.191 L 8.18 33.191 Q 7.296 33.694 6.769 34.437 L 6.769 34.437 L 6.769 34.437 Q 6.241 35.179 6.241 36.233 L 6.241 36.233 L 6.241 36.233 Q 6.241 36.517 6.515 36.648 L 6.515 36.648 L 6.515 36.648 Q 6.788 36.78 7.198 36.839 L 7.198 36.839 L 7.198 36.839 Q 7.608 36.897 8.087 36.932 L 8.087 36.932 L 8.087 36.932 Q 8.565 36.966 8.976 37.059 L 8.976 37.059 L 8.976 37.059 Q 9.386 37.151 9.659 37.347 L 9.659 37.347 L 9.659 37.347 Q 9.933 37.542 9.933 37.923 L 9.933 37.923 L 9.933 37.923 Q 9.933 38.089 9.571 38.172 L 9.571 38.172 L 9.571 38.172 Q 9.21 38.255 8.653 38.255 L 8.653 38.255 L 8.653 38.255 Q 8.253 38.255 7.794 38.206 L 7.794 38.206 L 7.794 38.206 Q 7.335 38.157 6.876 38.055 L 6.876 38.055 L 6.876 38.055 Q 6.417 37.952 5.992 37.796 L 5.992 37.796 L 5.992 37.796 Q 5.567 37.64 5.245 37.42 L 5.245 37.42 L 5.245 37.42 Q 4.923 37.2 4.728 36.917 L 4.728 36.917 L 4.728 36.917 Q 4.532 36.634 4.532 36.282 L 4.532 36.282 L 4.532 36.282 Q 4.532 35.384 4.908 34.686 L 4.908 34.686 L 4.908 34.686 Q 5.284 33.987 5.934 33.445 L 5.934 33.445 L 5.934 33.445 Q 6.583 32.903 7.462 32.518 L 7.462 32.518 L 7.462 32.518 Q 8.341 32.132 9.354 31.92 L 9.354 31.92 L 9.354 31.92 Q 10.367 31.709 11.434 31.486 L 11.434 31.486 L 11.434 31.486 Q 12.501 31.263 13.561 31.17 L 13.561 31.17 L 13.561 31.17 Q 14.62 31.077 15.602 31.048 L 15.602 31.048 L 15.602 31.048 Q 16.583 31.019 17.394 31.019 L 17.394 31.019 L 17.394 31.019 Q 18.331 31.019 19.391 31.063 L 19.391 31.063 L 19.391 31.063 Q 20.45 31.106 21.539 31.248 L 21.539 31.248 L 21.539 31.248 Q 22.629 31.39 23.712 31.532 L 23.712 31.532 L 23.712 31.532 Q 24.796 31.673 25.782 31.932 L 25.782 31.932 L 25.782 31.932 Q 26.769 32.19 27.613 32.537 L 27.613 32.537 L 27.613 32.537 Q 28.458 32.884 29.078 33.333 L 29.078 33.333 L 29.078 33.333 Q 29.698 33.782 30.05 34.349 L 30.05 34.349 L 30.05 34.349 Q 30.401 34.915 30.401 35.608 L 30.401 35.608 L 30.401 35.608 Q 30.401 36.429 30.03 37.098 L 30.03 37.098 L 30.03 37.098 Q 29.659 37.767 29.02 38.304 L 29.02 38.304 L 29.02 38.304 Q 28.38 38.841 27.506 39.256 L 27.506 39.256 L 27.506 39.256 Q 26.632 39.671 25.626 39.983 L 25.626 39.983 L 25.626 39.983 Q 24.62 40.296 23.521 40.521 L 23.521 40.521 L 23.521 40.521 Q 22.423 40.745 21.331 40.876 L 21.331 40.876 L 21.331 40.876 Q 20.239 41.006 19.207 41.13 L 19.207 41.13 L 19.207 41.13 Q 18.175 41.253 17.286 41.312 L 17.286 41.312 L 17.286 41.312 Q 17.101 41.536 16.832 42.083 L 16.832 42.083 L 16.832 42.083 Q 16.563 42.63 16.231 43.377 L 16.231 43.377 L 16.231 43.377 Q 15.899 44.124 15.519 45.008 L 15.519 45.008 L 15.519 45.008 Q 15.138 45.892 14.737 46.78 L 14.737 46.78 L 14.737 46.78 Q 15.001 47.103 15.377 47.244 L 15.377 47.244 L 15.377 47.244 Q 15.753 47.386 16.202 47.386 L 16.202 47.386 L 16.202 47.386 Q 16.72 47.386 17.291 47.278 L 17.291 47.278 L 17.291 47.278 Q 17.862 47.171 18.443 46.99 L 18.443 46.99 L 18.443 46.99 Q 19.024 46.81 19.596 46.58 L 19.596 46.58 L 19.596 46.58 Q 20.167 46.351 20.694 46.116 L 20.694 46.116 L 20.694 46.116 Q 21.349 45.833 22.013 45.506 L 22.013 45.506 L 22.013 45.506 Q 22.677 45.179 23.351 44.837 Z  M 15.079 40.608 L 15.079 40.608 L 15.079 40.608 Q 15.284 40.169 15.543 39.676 L 15.543 39.676 L 15.543 39.676 Q 15.802 39.183 16.031 38.685 L 16.031 38.685 L 16.031 38.685 Q 16.261 38.187 16.417 37.718 L 16.417 37.718 L 16.417 37.718 Q 16.573 37.249 16.573 36.849 L 16.573 36.849 L 16.573 36.849 Q 16.573 36.302 16.305 35.965 L 16.305 35.965 L 16.305 35.965 Q 16.036 35.628 15.353 35.628 L 15.353 35.628 L 15.353 35.628 Q 14.776 35.628 14.254 35.823 L 14.254 35.823 L 14.254 35.823 Q 13.731 36.019 13.336 36.385 L 13.336 36.385 L 13.336 36.385 Q 12.94 36.751 12.711 37.269 L 12.711 37.269 L 12.711 37.269 Q 12.481 37.786 12.481 38.431 L 12.481 38.431 L 12.481 38.431 Q 12.481 38.958 12.677 39.363 L 12.677 39.363 L 12.677 39.363 Q 12.872 39.769 13.214 40.047 L 13.214 40.047 L 13.214 40.047 Q 13.556 40.325 14.034 40.467 L 14.034 40.467 L 14.034 40.467 Q 14.513 40.608 15.079 40.608 Z  M 26.173 43.987 L 23.351 45.647 L 23.351 45.647 Q 23.282 45.687 23.224 45.687 L 23.224 45.687 L 23.224 45.687 Q 23.126 45.687 23.077 45.604 L 23.077 45.604 L 23.077 45.604 Q 23.028 45.521 23.028 45.394 L 23.028 45.394 L 23.028 45.394 Q 23.028 45.257 23.097 45.101 L 23.097 45.101 L 23.097 45.101 Q 23.165 44.944 23.351 44.837 L 23.351 44.837 L 26.964 42.708 L 26.964 42.708 Q 27.638 42.317 28.399 42.034 L 28.399 42.034 L 28.399 42.034 Q 29.161 41.751 29.947 41.57 L 29.947 41.57 L 29.947 41.57 Q 30.733 41.39 31.505 41.307 L 31.505 41.307 L 31.505 41.307 Q 32.276 41.224 32.96 41.224 L 32.96 41.224 L 32.96 41.224 Q 33.351 41.224 33.692 41.277 L 33.692 41.277 L 33.692 41.277 Q 34.034 41.331 34.283 41.434 L 34.283 41.434 L 34.283 41.434 Q 34.532 41.536 34.674 41.683 L 34.674 41.683 L 34.674 41.683 Q 34.815 41.829 34.815 42.015 L 34.815 42.015 L 34.815 42.015 Q 34.815 42.151 34.718 42.21 L 34.718 42.21 L 34.718 42.21 Q 34.62 42.269 34.488 42.293 L 34.488 42.293 L 34.488 42.293 Q 34.356 42.317 34.215 42.327 L 34.215 42.327 L 34.215 42.327 Q 34.073 42.337 33.995 42.376 L 33.995 42.376 L 33.995 42.376 Q 33.937 42.562 33.81 42.947 L 33.81 42.947 L 33.81 42.947 Q 33.684 43.333 33.552 43.737 L 33.552 43.737 L 33.552 43.737 Q 33.419 44.14 33.316 44.457 L 33.316 44.457 L 33.316 44.457 Q 33.212 44.774 33.196 44.821 L 33.196 44.821 L 33.196 44.821 Q 33.063 45.229 32.855 45.863 L 32.855 45.863 L 32.855 45.863 Q 32.647 46.497 32.384 47.552 L 32.384 47.552 L 32.384 47.552 Q 32.394 47.552 32.604 47.439 L 32.604 47.439 L 32.604 47.439 Q 32.813 47.327 33.15 47.142 L 33.15 47.142 L 33.15 47.142 Q 33.487 46.956 33.917 46.712 L 33.917 46.712 L 33.917 46.712 Q 34.347 46.468 34.806 46.214 L 34.806 46.214 L 37.14 44.837 L 37.14 44.837 Q 37.276 44.759 37.374 44.759 L 37.374 44.759 L 37.374 44.759 Q 37.481 44.759 37.54 44.832 L 37.54 44.832 L 37.54 44.832 Q 37.599 44.905 37.599 45.013 L 37.599 45.013 L 37.599 45.013 Q 37.599 45.149 37.491 45.33 L 37.491 45.33 L 37.491 45.33 Q 37.384 45.511 37.14 45.647 L 37.14 45.647 L 31.944 48.694 L 31.944 48.694 Q 31.749 48.812 31.583 48.86 L 31.583 48.86 L 31.583 48.86 Q 31.417 48.909 31.28 48.909 L 31.28 48.909 L 31.28 48.909 Q 31.085 48.909 30.948 48.821 L 30.948 48.821 L 30.948 48.821 Q 30.812 48.733 30.724 48.577 L 30.724 48.577 L 30.724 48.577 Q 30.636 48.421 30.592 48.221 L 30.592 48.221 L 30.592 48.221 Q 30.548 48.021 30.548 47.796 L 30.548 47.796 L 30.548 47.796 Q 30.548 47.552 30.597 47.308 L 30.597 47.308 L 30.597 47.308 Q 30.646 47.063 30.724 46.839 L 30.724 46.839 L 30.724 46.839 Q 30.44 47.396 30.064 47.806 L 30.064 47.806 L 30.064 47.806 Q 29.688 48.216 29.264 48.494 L 29.264 48.494 L 29.264 48.494 Q 28.839 48.772 28.39 48.909 L 28.39 48.909 L 28.39 48.909 Q 27.94 49.046 27.511 49.046 L 27.511 49.046 L 27.511 49.046 Q 27.081 49.046 26.7 48.909 L 26.7 48.909 L 26.7 48.909 Q 26.319 48.772 26.031 48.504 L 26.031 48.504 L 26.031 48.504 Q 25.743 48.235 25.577 47.835 L 25.577 47.835 L 25.577 47.835 Q 25.411 47.435 25.411 46.907 L 25.411 46.907 L 25.411 46.907 Q 25.411 46.595 25.475 46.214 L 25.475 46.214 L 25.475 46.214 Q 25.538 45.833 25.646 45.442 L 25.646 45.442 L 25.646 45.442 Q 25.753 45.052 25.89 44.676 L 25.89 44.676 L 25.89 44.676 Q 26.026 44.3 26.173 43.987 L 26.173 43.987 L 26.173 43.987 Z  M 31.192 44.915 L 32.228 42.054 L 32.228 42.054 Q 31.446 42.054 30.733 42.317 L 30.733 42.317 L 30.733 42.317 Q 30.021 42.581 29.41 43.011 L 29.41 43.011 L 29.41 43.011 Q 28.8 43.44 28.307 43.992 L 28.307 43.992 L 28.307 43.992 Q 27.813 44.544 27.467 45.125 L 27.467 45.125 L 27.467 45.125 Q 27.12 45.706 26.93 46.272 L 26.93 46.272 L 26.93 46.272 Q 26.739 46.839 26.739 47.288 L 26.739 47.288 L 26.739 47.288 Q 26.739 47.786 26.959 48.094 L 26.959 48.094 L 26.959 48.094 Q 27.179 48.401 27.677 48.401 L 27.677 48.401 L 27.677 48.401 Q 27.97 48.401 28.316 48.221 L 28.316 48.221 L 28.316 48.221 Q 28.663 48.04 29.02 47.742 L 29.02 47.742 L 29.02 47.742 Q 29.376 47.444 29.723 47.068 L 29.723 47.068 L 29.723 47.068 Q 30.069 46.692 30.362 46.307 L 30.362 46.307 L 30.362 46.307 Q 30.655 45.921 30.875 45.555 L 30.875 45.555 L 30.875 45.555 Q 31.095 45.188 31.192 44.915 L 31.192 44.915 L 31.192 44.915 Z  M 35.187 36.194 L 35.187 36.194 L 35.187 36.194 Q 35.235 36.38 35.284 36.624 L 35.284 36.624 L 35.284 36.624 Q 35.333 36.868 35.401 37.225 L 35.401 37.225 L 35.401 37.225 Q 35.47 37.581 35.567 38.079 L 35.567 38.079 L 35.567 38.079 Q 35.665 38.577 35.812 39.271 L 35.812 39.271 L 35.812 39.271 Q 35.812 39.29 35.816 39.3 L 35.816 39.3 L 35.816 39.3 Q 35.821 39.31 35.821 39.329 L 35.821 39.329 L 35.821 39.329 Q 35.821 39.515 35.675 39.612 L 35.675 39.612 L 35.675 39.612 Q 35.528 39.71 35.353 39.71 L 35.353 39.71 L 35.353 39.71 Q 35.235 39.71 35.143 39.661 L 35.143 39.661 L 35.143 39.661 Q 35.05 39.612 35.011 39.505 L 35.011 39.505 L 35.011 39.505 Q 34.728 38.743 34.4 37.986 L 34.4 37.986 L 34.4 37.986 Q 34.073 37.229 33.761 36.468 L 33.761 36.468 L 33.761 36.468 Q 32.843 37.229 31.944 37.972 L 31.944 37.972 L 31.944 37.972 Q 31.046 38.714 30.099 39.505 L 30.099 39.505 L 30.099 39.505 Q 29.991 39.583 29.864 39.583 L 29.864 39.583 L 29.864 39.583 Q 29.728 39.583 29.601 39.51 L 29.601 39.51 L 29.601 39.51 Q 29.474 39.437 29.474 39.319 L 29.474 39.319 L 29.474 39.319 Q 29.474 39.251 29.562 39.144 L 29.562 39.144 L 29.562 39.144 Q 30.05 38.558 30.416 38.138 L 30.416 38.138 L 30.416 38.138 Q 30.782 37.718 31.056 37.43 L 31.056 37.43 L 31.056 37.43 Q 31.329 37.142 31.524 36.946 L 31.524 36.946 L 31.524 36.946 Q 31.72 36.751 31.866 36.609 L 31.866 36.609 L 31.866 36.609 Q 32.013 36.468 32.135 36.355 L 32.135 36.355 L 32.135 36.355 Q 32.257 36.243 32.384 36.106 L 32.384 36.106 L 32.384 36.106 Q 32.53 35.94 32.726 35.77 L 32.726 35.77 L 32.726 35.77 Q 32.921 35.599 33.15 35.457 L 33.15 35.457 L 33.15 35.457 Q 33.38 35.315 33.624 35.223 L 33.624 35.223 L 33.624 35.223 Q 33.868 35.13 34.103 35.13 L 34.103 35.13 L 34.103 35.13 Q 34.444 35.13 34.732 35.364 L 34.732 35.364 L 34.732 35.364 Q 35.021 35.599 35.187 36.194 Z  M 47.716 35.228 L 47.716 35.228 L 47.716 35.228 Q 47.159 35.228 46.661 35.462 L 46.661 35.462 L 46.661 35.462 Q 46.163 35.696 45.719 36.106 L 45.719 36.106 L 45.719 36.106 Q 45.274 36.517 44.884 37.083 L 44.884 37.083 L 44.884 37.083 Q 44.493 37.649 44.151 38.304 L 44.151 38.304 L 44.151 38.304 Q 43.81 38.958 43.521 39.681 L 43.521 39.681 L 43.521 39.681 Q 43.233 40.403 42.999 41.136 L 42.999 41.136 L 42.999 41.136 Q 44.317 40.188 45.313 39.339 L 45.313 39.339 L 45.313 39.339 Q 46.31 38.489 46.983 37.786 L 46.983 37.786 L 46.983 37.786 Q 47.657 37.083 47.994 36.541 L 47.994 36.541 L 47.994 36.541 Q 48.331 35.999 48.331 35.657 L 48.331 35.657 L 48.331 35.657 Q 48.331 35.462 48.209 35.345 L 48.209 35.345 L 48.209 35.345 Q 48.087 35.228 47.716 35.228 Z  M 48.702 40.989 L 48.702 40.989 L 48.702 40.989 Q 48.937 41.106 48.937 41.272 L 48.937 41.272 L 48.937 41.272 Q 48.937 41.526 48.746 41.741 L 48.746 41.741 L 48.746 41.741 Q 48.556 41.956 48.248 42.127 L 48.248 42.127 L 48.248 42.127 Q 47.94 42.298 47.555 42.425 L 47.555 42.425 L 47.555 42.425 Q 47.169 42.552 46.783 42.64 L 46.783 42.64 L 46.783 42.64 Q 46.397 42.728 46.046 42.776 L 46.046 42.776 L 46.046 42.776 Q 45.655 42.825 45.46 42.815 L 45.46 42.815 L 45.46 42.815 Q 44.698 42.796 43.956 42.786 L 43.956 42.786 L 42.521 42.767 L 42.521 42.767 Q 42.29 43.871 42.128 44.648 L 42.128 44.648 L 42.128 44.648 Q 41.965 45.425 41.847 45.99 L 41.847 45.99 L 41.847 45.99 Q 41.729 46.556 41.71 46.976 L 41.71 46.976 L 41.71 46.976 Q 41.69 47.396 41.69 47.786 L 41.69 47.786 L 41.69 47.786 Q 41.69 48.001 41.749 48.128 L 41.749 48.128 L 41.749 48.128 Q 41.808 48.255 41.944 48.255 L 41.944 48.255 L 41.944 48.255 Q 42.423 48.255 42.999 47.933 L 42.999 47.933 L 42.999 47.933 Q 43.585 47.61 44.308 47.112 L 44.308 47.112 L 45.929 46.009 L 45.929 46.009 Q 47.257 45.101 47.921 44.837 L 47.921 44.837 L 47.921 44.837 Q 47.97 44.817 48.116 44.749 L 48.116 44.749 L 48.116 44.749 Q 48.194 44.72 48.263 44.72 L 48.263 44.72 L 48.263 44.72 Q 48.478 44.72 48.478 44.944 L 48.478 44.944 L 48.478 44.944 Q 48.478 45.091 48.351 45.286 L 48.351 45.286 L 48.351 45.286 Q 48.214 45.472 47.921 45.647 L 47.921 45.647 L 47.921 45.647 Q 46.427 46.546 45.714 47.054 L 45.714 47.054 L 44.044 48.265 L 44.044 48.265 Q 43.302 48.792 42.687 49.104 L 42.687 49.104 L 42.687 49.104 Q 42.062 49.417 41.427 49.417 L 41.427 49.417 L 41.427 49.417 Q 40.88 49.417 40.577 49.124 L 40.577 49.124 L 40.577 49.124 Q 40.284 48.831 40.143 48.406 L 40.143 48.406 L 40.143 48.406 Q 40.001 47.981 39.972 47.493 L 39.972 47.493 L 39.972 47.493 Q 39.942 47.005 39.942 46.624 L 39.942 46.624 L 39.942 46.624 Q 39.942 45.882 40.066 45.156 L 40.066 45.156 L 40.066 45.156 Q 40.189 44.431 40.304 43.753 L 40.304 43.753 L 38.745 44.715 L 37.172 45.648 L 37.172 45.648 Q 37.123 45.677 37.065 45.677 L 37.065 45.677 L 37.065 45.677 Q 36.957 45.677 36.86 45.584 L 36.86 45.584 L 36.86 45.584 Q 36.762 45.491 36.762 45.355 L 36.762 45.355 L 36.762 45.355 Q 36.762 45.247 36.85 45.111 L 36.85 45.111 L 36.85 45.111 Q 36.938 44.974 37.172 44.837 L 37.172 44.837 L 38.902 43.851 L 38.902 43.851 Q 39.724 43.363 40.455 42.865 L 40.455 42.865 L 40.47 42.776 L 39.22 42.806 L 39.22 42.806 Q 39.122 42.806 39.034 42.815 L 39.034 42.815 L 39.034 42.815 Q 38.946 42.825 38.868 42.825 L 38.868 42.825 L 38.868 42.825 Q 38.702 42.825 38.6 42.723 L 38.6 42.723 L 38.6 42.723 Q 38.497 42.62 38.478 42.493 L 38.478 42.493 L 38.478 42.493 Q 38.478 42.386 38.644 42.288 L 38.644 42.288 L 38.644 42.288 Q 38.81 42.19 39.112 42.112 L 39.112 42.112 L 39.112 42.112 Q 39.415 42.024 39.835 41.951 L 39.835 41.951 L 39.835 41.951 Q 40.255 41.878 40.763 41.819 L 40.763 41.819 L 40.763 41.819 Q 41.349 39.983 42.032 38.636 L 42.032 38.636 L 42.032 38.636 Q 42.716 37.288 43.57 36.409 L 43.57 36.409 L 43.57 36.409 Q 44.425 35.53 45.479 35.101 L 45.479 35.101 L 45.479 35.101 Q 46.534 34.671 47.862 34.671 L 47.862 34.671 L 47.862 34.671 Q 48.478 34.671 48.756 34.861 L 48.756 34.861 L 48.756 34.861 Q 49.034 35.052 49.034 35.394 L 49.034 35.394 L 49.034 35.394 Q 49.034 35.862 48.619 36.526 L 48.619 36.526 L 48.619 36.526 Q 48.204 37.19 47.457 37.996 L 47.457 37.996 L 47.457 37.996 Q 46.71 38.802 45.67 39.705 L 45.67 39.705 L 45.67 39.705 Q 44.63 40.608 43.37 41.556 L 43.37 41.556 L 43.37 41.556 Q 43.995 41.497 44.64 41.448 L 44.64 41.448 L 45.909 41.341 L 45.909 41.341 Q 46.534 41.292 47.135 41.233 L 47.135 41.233 L 47.135 41.233 Q 47.735 41.175 48.282 41.106 L 48.282 41.106 L 48.282 41.106 Q 48.39 41.077 48.438 41.023 L 48.438 41.023 L 48.438 41.023 Q 48.487 40.97 48.604 40.97 L 48.604 40.97 L 48.604 40.97 Q 48.644 40.97 48.702 40.989 Z  M 58.897 45.647 L 58.897 45.647 L 58.897 45.647 Q 57.384 46.517 56.329 47.156 L 56.329 47.156 L 56.329 47.156 Q 55.274 47.796 54.532 48.211 L 54.532 48.211 L 54.532 48.211 Q 53.79 48.626 53.277 48.826 L 53.277 48.826 L 53.277 48.826 Q 52.765 49.026 52.345 49.026 L 52.345 49.026 L 52.345 49.026 Q 51.935 49.026 51.646 48.929 L 51.646 48.929 L 51.646 48.929 Q 51.358 48.831 51.173 48.665 L 51.173 48.665 L 51.173 48.665 Q 50.987 48.499 50.904 48.265 L 50.904 48.265 L 50.904 48.265 Q 50.821 48.03 50.821 47.757 L 50.821 47.757 L 50.821 47.757 Q 50.821 47.552 50.909 47.337 L 50.909 47.337 L 50.909 47.337 Q 50.997 47.122 51.129 46.897 L 51.129 46.897 L 51.129 46.897 Q 51.261 46.673 51.407 46.424 L 51.407 46.424 L 51.407 46.424 Q 51.554 46.175 51.681 45.892 L 51.681 45.892 L 53.165 42.571 L 47.921 45.647 L 47.921 45.647 Q 47.794 45.696 47.745 45.696 L 47.745 45.696 L 47.745 45.696 Q 47.628 45.696 47.535 45.618 L 47.535 45.618 L 47.535 45.618 Q 47.442 45.54 47.442 45.413 L 47.442 45.413 L 47.442 45.413 Q 47.442 45.296 47.545 45.149 L 47.545 45.149 L 47.545 45.149 Q 47.647 45.003 47.921 44.837 L 47.921 44.837 L 50.45 43.362 L 50.45 43.362 Q 50.948 43.069 51.456 42.776 L 51.456 42.776 L 51.456 42.776 Q 51.964 42.483 52.408 42.229 L 52.408 42.229 L 52.408 42.229 Q 52.853 41.976 53.209 41.775 L 53.209 41.775 L 53.209 41.775 Q 53.565 41.575 53.761 41.468 L 53.761 41.468 L 55.021 41.468 L 55.021 41.468 Q 55.06 41.497 55.089 41.565 L 55.089 41.565 L 55.089 41.565 Q 55.118 41.634 55.118 41.771 L 55.118 41.771 L 55.118 41.771 Q 55.118 42.024 54.972 42.488 L 54.972 42.488 L 54.972 42.488 Q 54.825 42.952 54.605 43.528 L 54.605 43.528 L 54.605 43.528 Q 54.386 44.104 54.117 44.734 L 54.117 44.734 L 54.117 44.734 Q 53.849 45.364 53.614 45.931 L 53.614 45.931 L 53.614 45.931 Q 53.38 46.487 53.126 47.044 L 53.126 47.044 L 53.126 47.044 Q 52.872 47.601 52.618 48.187 L 52.618 48.187 L 52.618 48.187 Q 52.882 48.187 53.453 47.923 L 53.453 47.923 L 53.453 47.923 Q 54.024 47.659 54.84 47.205 L 54.84 47.205 L 54.84 47.205 Q 55.655 46.751 56.686 46.141 L 56.686 46.141 L 56.686 46.141 Q 57.716 45.53 58.897 44.837 L 58.897 44.837 L 58.897 44.837 Q 58.937 44.798 59.044 44.798 L 59.044 44.798 L 59.044 44.798 Q 59.161 44.798 59.264 44.876 L 59.264 44.876 L 59.264 44.876 Q 59.366 44.954 59.366 45.091 L 59.366 45.091 L 59.366 45.091 Q 59.366 45.208 59.264 45.35 L 59.264 45.35 L 59.264 45.35 Q 59.161 45.491 58.897 45.647 Z  M 55.597 39.866 L 56.202 38.05 L 56.202 38.05 Q 56.261 38.05 56.422 38.055 L 56.422 38.055 L 56.422 38.055 Q 56.583 38.06 56.788 38.079 L 56.788 38.079 L 56.788 38.079 Q 56.993 38.099 57.218 38.143 L 57.218 38.143 L 57.218 38.143 Q 57.442 38.187 57.628 38.27 L 57.628 38.27 L 57.628 38.27 Q 57.813 38.353 57.94 38.479 L 57.94 38.479 L 57.94 38.479 Q 58.067 38.606 58.077 38.792 L 58.077 38.792 L 56.661 39.866 L 56.017 40.169 L 56.017 40.169 Q 55.841 40.169 55.743 40.071 L 55.743 40.071 L 55.743 40.071 Q 55.646 39.974 55.597 39.866 L 55.597 39.866 L 55.597 39.866 Z  M 65.46 42.63 L 65.46 42.63 L 65.46 42.63 Q 65.46 43.04 65.519 43.235 L 65.519 43.235 L 65.519 43.235 Q 65.577 43.431 65.65 43.582 L 65.65 43.582 L 65.65 43.582 Q 65.724 43.733 65.787 43.914 L 65.787 43.914 L 65.787 43.914 Q 65.851 44.095 65.851 44.476 L 65.851 44.476 L 65.851 44.476 Q 65.851 44.739 65.797 45.066 L 65.797 45.066 L 65.797 45.066 Q 65.743 45.394 65.597 45.74 L 65.597 45.74 L 65.597 45.74 Q 65.45 46.087 65.187 46.424 L 65.187 46.424 L 65.187 46.424 Q 64.923 46.761 64.513 47.024 L 64.513 47.024 L 68.341 44.837 L 68.341 44.837 Q 68.409 44.798 68.478 44.798 L 68.478 44.798 L 68.478 44.798 Q 68.585 44.798 68.668 44.881 L 68.668 44.881 L 68.668 44.881 Q 68.751 44.964 68.751 45.101 L 68.751 45.101 L 68.751 45.101 Q 68.751 45.208 68.658 45.364 L 68.658 45.364 L 68.658 45.364 Q 68.565 45.521 68.341 45.647 L 68.341 45.647 L 68.341 45.647 Q 67.14 46.331 66.275 46.834 L 66.275 46.834 L 66.275 46.834 Q 65.411 47.337 64.801 47.698 L 64.801 47.698 L 64.801 47.698 Q 64.19 48.06 63.8 48.299 L 63.8 48.299 L 63.8 48.299 Q 63.409 48.538 63.146 48.694 L 63.146 48.694 L 63.146 48.694 Q 62.677 48.978 62.257 49.075 L 62.257 49.075 L 62.257 49.075 Q 61.837 49.173 61.427 49.173 L 61.427 49.173 L 61.427 49.173 Q 61.114 49.173 60.973 49.065 L 60.973 49.065 L 60.973 49.065 Q 60.831 48.958 60.836 48.826 L 60.836 48.826 L 60.836 48.826 Q 60.841 48.694 60.987 48.582 L 60.987 48.582 L 60.987 48.582 Q 61.134 48.47 61.407 48.47 L 61.407 48.47 L 61.407 48.47 Q 61.886 48.47 62.335 48.143 L 62.335 48.143 L 62.335 48.143 Q 62.784 47.815 63.131 47.254 L 63.131 47.254 L 63.131 47.254 Q 63.478 46.692 63.687 45.94 L 63.687 45.94 L 63.687 45.94 Q 63.897 45.188 63.897 44.349 L 63.897 44.349 L 63.897 44.349 Q 63.897 44.222 63.951 43.86 L 63.951 43.86 L 63.951 43.86 Q 64.005 43.499 64.122 43.079 L 64.122 43.079 L 64.122 43.079 Q 64.239 42.659 64.43 42.259 L 64.43 42.259 L 64.43 42.259 Q 64.62 41.858 64.884 41.653 L 64.884 41.653 L 58.897 45.647 L 58.897 45.647 Q 58.8 45.716 58.692 45.716 L 58.692 45.716 L 58.692 45.716 Q 58.585 45.716 58.517 45.638 L 58.517 45.638 L 58.517 45.638 Q 58.448 45.56 58.448 45.442 L 58.448 45.442 L 58.448 45.442 Q 58.448 45.306 58.551 45.14 L 58.551 45.14 L 58.551 45.14 Q 58.653 44.974 58.897 44.837 L 58.897 44.837 L 58.897 44.837 Q 60.47 43.772 61.539 43.064 L 61.539 43.064 L 61.539 43.064 Q 62.608 42.356 63.282 41.917 L 63.282 41.917 L 64.649 40.989 L 64.649 40.989 Q 64.952 40.862 65.284 40.789 L 65.284 40.789 L 65.284 40.789 Q 65.616 40.716 65.899 40.716 L 65.899 40.716 L 65.899 40.716 Q 66.212 40.716 66.412 40.818 L 66.412 40.818 L 66.412 40.818 Q 66.612 40.921 66.612 41.146 L 66.612 41.146 L 66.612 41.146 Q 66.612 41.224 66.432 41.399 L 66.432 41.399 L 66.432 41.399 Q 66.251 41.575 66.036 41.795 L 66.036 41.795 L 66.036 41.795 Q 65.821 42.015 65.641 42.239 L 65.641 42.239 L 65.641 42.239 Q 65.46 42.464 65.46 42.63 Z  M 74.903 42.63 L 74.903 42.63 L 74.903 42.63 Q 74.903 43.04 74.962 43.235 L 74.962 43.235 L 74.962 43.235 Q 75.021 43.431 75.094 43.582 L 75.094 43.582 L 75.094 43.582 Q 75.167 43.733 75.23 43.914 L 75.23 43.914 L 75.23 43.914 Q 75.294 44.095 75.294 44.476 L 75.294 44.476 L 75.294 44.476 Q 75.294 44.739 75.24 45.066 L 75.24 45.066 L 75.24 45.066 Q 75.187 45.394 75.04 45.74 L 75.04 45.74 L 75.04 45.74 Q 74.894 46.087 74.63 46.424 L 74.63 46.424 L 74.63 46.424 Q 74.366 46.761 73.956 47.024 L 73.956 47.024 L 77.784 44.837 L 77.784 44.837 Q 77.853 44.798 77.921 44.798 L 77.921 44.798 L 77.921 44.798 Q 78.028 44.798 78.111 44.881 L 78.111 44.881 L 78.111 44.881 Q 78.194 44.964 78.194 45.101 L 78.194 45.101 L 78.194 45.101 Q 78.194 45.208 78.102 45.364 L 78.102 45.364 L 78.102 45.364 Q 78.009 45.521 77.784 45.647 L 77.784 45.647 L 77.784 45.647 Q 76.583 46.331 75.719 46.834 L 75.719 46.834 L 75.719 46.834 Q 74.854 47.337 74.244 47.698 L 74.244 47.698 L 74.244 47.698 Q 73.634 48.06 73.243 48.299 L 73.243 48.299 L 73.243 48.299 Q 72.853 48.538 72.589 48.694 L 72.589 48.694 L 72.589 48.694 Q 72.12 48.978 71.7 49.075 L 71.7 49.075 L 71.7 49.075 Q 71.28 49.173 70.87 49.173 L 70.87 49.173 L 70.87 49.173 Q 70.558 49.173 70.416 49.065 L 70.416 49.065 L 70.416 49.065 Q 70.274 48.958 70.279 48.826 L 70.279 48.826 L 70.279 48.826 Q 70.284 48.694 70.431 48.582 L 70.431 48.582 L 70.431 48.582 Q 70.577 48.47 70.851 48.47 L 70.851 48.47 L 70.851 48.47 Q 71.329 48.47 71.778 48.143 L 71.778 48.143 L 71.778 48.143 Q 72.228 47.815 72.574 47.254 L 72.574 47.254 L 72.574 47.254 Q 72.921 46.692 73.131 45.94 L 73.131 45.94 L 73.131 45.94 Q 73.341 45.188 73.341 44.349 L 73.341 44.349 L 73.341 44.349 Q 73.341 44.222 73.395 43.86 L 73.395 43.86 L 73.395 43.86 Q 73.448 43.499 73.565 43.079 L 73.565 43.079 L 73.565 43.079 Q 73.683 42.659 73.873 42.259 L 73.873 42.259 L 73.873 42.259 Q 74.063 41.858 74.327 41.653 L 74.327 41.653 L 68.341 45.647 L 68.341 45.647 Q 68.243 45.716 68.136 45.716 L 68.136 45.716 L 68.136 45.716 Q 68.028 45.716 67.96 45.638 L 67.96 45.638 L 67.96 45.638 Q 67.892 45.56 67.892 45.442 L 67.892 45.442 L 67.892 45.442 Q 67.892 45.306 67.994 45.14 L 67.994 45.14 L 67.994 45.14 Q 68.097 44.974 68.341 44.837 L 68.341 44.837 L 68.341 44.837 Q 69.913 43.772 70.982 43.064 L 70.982 43.064 L 70.982 43.064 Q 72.052 42.356 72.726 41.917 L 72.726 41.917 L 74.093 40.989 L 74.093 40.989 Q 74.396 40.862 74.728 40.789 L 74.728 40.789 L 74.728 40.789 Q 75.06 40.716 75.343 40.716 L 75.343 40.716 L 75.343 40.716 Q 75.655 40.716 75.855 40.818 L 75.855 40.818 L 75.855 40.818 Q 76.056 40.921 76.056 41.146 L 76.056 41.146 L 76.056 41.146 Q 76.056 41.224 75.875 41.399 L 75.875 41.399 L 75.875 41.399 Q 75.694 41.575 75.479 41.795 L 75.479 41.795 L 75.479 41.795 Q 75.265 42.015 75.084 42.239 L 75.084 42.239 L 75.084 42.239 Q 74.903 42.464 74.903 42.63 Z  M 78.8 45.052 L 77.784 45.647 L 77.784 45.647 Q 77.687 45.716 77.56 45.716 L 77.56 45.716 L 77.56 45.716 Q 77.433 45.716 77.354 45.643 L 77.354 45.643 L 77.354 45.643 Q 77.276 45.569 77.276 45.452 L 77.276 45.452 L 77.276 45.452 Q 77.276 45.325 77.389 45.164 L 77.389 45.164 L 77.389 45.164 Q 77.501 45.003 77.784 44.837 L 77.784 44.837 L 80.255 43.382 L 80.255 43.382 Q 80.528 42.61 80.963 42.049 L 80.963 42.049 L 80.963 42.049 Q 81.397 41.487 81.92 41.121 L 81.92 41.121 L 81.92 41.121 Q 82.442 40.755 83.014 40.574 L 83.014 40.574 L 83.014 40.574 Q 83.585 40.394 84.122 40.394 L 84.122 40.394 L 84.122 40.394 Q 84.669 40.394 85.025 40.682 L 85.025 40.682 L 85.025 40.682 Q 85.382 40.97 85.382 41.575 L 85.382 41.575 L 85.382 41.575 Q 85.382 41.946 85.113 42.352 L 85.113 42.352 L 85.113 42.352 Q 84.845 42.757 84.381 43.152 L 84.381 43.152 L 84.381 43.152 Q 83.917 43.548 83.292 43.89 L 83.292 43.89 L 83.292 43.89 Q 82.667 44.231 81.964 44.466 L 81.964 44.466 L 81.964 44.466 Q 81.964 44.935 81.949 45.354 L 81.949 45.354 L 81.949 45.354 Q 81.935 45.774 81.935 46.146 L 81.935 46.146 L 81.935 46.146 Q 81.935 46.458 81.954 46.717 L 81.954 46.717 L 81.954 46.717 Q 81.974 46.976 82.037 47.156 L 82.037 47.156 L 82.037 47.156 Q 82.101 47.337 82.213 47.439 L 82.213 47.439 L 82.213 47.439 Q 82.325 47.542 82.501 47.542 L 82.501 47.542 L 82.501 47.542 Q 82.774 47.542 83.16 47.322 L 83.16 47.322 L 83.16 47.322 Q 83.546 47.103 84.132 46.761 L 84.132 46.761 L 84.132 46.761 Q 84.659 46.448 85.479 45.979 L 85.479 45.979 L 85.479 45.979 Q 86.3 45.511 87.481 44.837 L 87.481 44.837 L 87.481 44.837 Q 87.521 44.808 87.589 44.808 L 87.589 44.808 L 87.589 44.808 Q 87.696 44.808 87.779 44.9 L 87.779 44.9 L 87.779 44.9 Q 87.862 44.993 87.862 45.13 L 87.862 45.13 L 87.862 45.13 Q 87.862 45.247 87.779 45.384 L 87.779 45.384 L 87.779 45.384 Q 87.696 45.521 87.481 45.647 L 87.481 45.647 L 87.481 45.647 Q 86.515 46.224 85.606 46.814 L 85.606 46.814 L 85.606 46.814 Q 84.698 47.405 83.893 47.889 L 83.893 47.889 L 83.893 47.889 Q 83.087 48.372 82.403 48.68 L 82.403 48.68 L 82.403 48.68 Q 81.72 48.987 81.212 48.987 L 81.212 48.987 L 81.212 48.987 Q 80.87 48.987 80.611 48.841 L 80.611 48.841 L 80.611 48.841 Q 80.353 48.694 80.172 48.372 L 80.172 48.372 L 80.172 48.372 Q 79.991 48.05 79.898 47.527 L 79.898 47.527 L 79.898 47.527 Q 79.806 47.005 79.806 46.253 L 79.806 46.253 L 79.806 46.253 Q 79.806 46.136 79.82 45.877 L 79.82 45.877 L 79.82 45.877 Q 79.835 45.618 79.869 45.32 L 79.869 45.32 L 79.869 45.32 Q 79.903 45.022 79.952 44.739 L 79.952 44.739 L 79.952 44.739 Q 80.001 44.456 80.069 44.3 L 80.069 44.3 L 80.069 44.3 Q 80.001 44.339 79.869 44.417 L 79.869 44.417 L 79.869 44.417 Q 79.737 44.495 79.562 44.598 L 79.562 44.598 L 79.562 44.598 Q 79.386 44.7 79.19 44.817 L 79.19 44.817 L 79.19 44.817 Q 78.995 44.935 78.8 45.052 L 78.8 45.052 L 78.8 45.052 Z  M 84.327 41.653 L 84.327 41.653 L 84.327 41.653 Q 84.347 41.595 84.347 41.526 L 84.347 41.526 L 84.347 41.526 Q 84.347 41.282 84.264 41.165 L 84.264 41.165 L 84.264 41.165 Q 84.181 41.048 83.985 41.048 L 83.985 41.048 L 83.985 41.048 Q 83.761 41.048 83.468 41.219 L 83.468 41.219 L 83.468 41.219 Q 83.175 41.39 82.896 41.722 L 82.896 41.722 L 82.896 41.722 Q 82.618 42.054 82.398 42.552 L 82.398 42.552 L 82.398 42.552 Q 82.179 43.05 82.101 43.694 L 82.101 43.694 L 82.101 43.694 Q 82.501 43.489 82.882 43.221 L 82.882 43.221 L 82.882 43.221 Q 83.263 42.952 83.57 42.674 L 83.57 42.674 L 83.57 42.674 Q 83.878 42.396 84.078 42.127 L 84.078 42.127 L 84.078 42.127 Q 84.278 41.858 84.327 41.653 Z  M 98.429 41.81 L 98.429 41.81 L 98.429 41.81 Q 98.429 42.054 98.341 42.381 L 98.341 42.381 L 98.341 42.381 Q 98.253 42.708 98.116 43.074 L 98.116 43.074 L 98.116 43.074 Q 97.979 43.44 97.823 43.821 L 97.823 43.821 L 97.823 43.821 Q 97.667 44.202 97.53 44.559 L 97.53 44.559 L 97.53 44.559 Q 97.394 44.915 97.306 45.228 L 97.306 45.228 L 97.306 45.228 Q 97.218 45.54 97.218 45.755 L 97.218 45.755 L 97.218 45.755 Q 97.218 45.94 97.301 46.048 L 97.301 46.048 L 97.301 46.048 Q 97.384 46.155 97.569 46.155 L 97.569 46.155 L 97.569 46.155 Q 97.706 46.155 97.955 46.053 L 97.955 46.053 L 97.955 46.053 Q 98.204 45.95 98.541 45.77 L 98.541 45.77 L 98.541 45.77 Q 98.878 45.589 99.283 45.35 L 99.283 45.35 L 99.283 45.35 Q 99.688 45.11 100.138 44.837 L 100.138 44.837 L 100.138 44.837 Q 100.235 44.778 100.333 44.778 L 100.333 44.778 L 100.333 44.778 Q 100.44 44.778 100.523 44.856 L 100.523 44.856 L 100.523 44.856 Q 100.606 44.935 100.606 45.052 L 100.606 45.052 L 100.606 45.052 Q 100.606 45.179 100.499 45.32 L 100.499 45.32 L 100.499 45.32 Q 100.392 45.462 100.138 45.647 L 100.138 45.647 L 100.138 45.647 Q 98.868 46.595 97.818 47.112 L 97.818 47.112 L 97.818 47.112 Q 96.769 47.63 96.144 47.63 L 96.144 47.63 L 96.144 47.63 Q 95.636 47.63 95.343 47.474 L 95.343 47.474 L 95.343 47.474 Q 95.05 47.317 95.05 46.985 L 95.05 46.985 L 95.05 46.985 Q 95.05 46.673 95.318 46.194 L 95.318 46.194 L 95.318 46.194 Q 95.587 45.716 96.202 45.062 L 96.202 45.062 L 96.202 45.062 Q 96.437 44.671 96.573 44.207 L 96.573 44.207 L 96.573 44.207 Q 96.71 43.743 96.773 43.299 L 96.773 43.299 L 96.773 43.299 Q 96.837 42.854 96.856 42.479 L 96.856 42.479 L 96.856 42.479 Q 96.876 42.103 96.876 41.878 L 96.876 41.878 L 96.876 41.878 Q 96.876 41.507 96.754 41.307 L 96.754 41.307 L 96.754 41.307 Q 96.632 41.106 96.349 41.106 L 96.349 41.106 L 96.349 41.106 Q 96.036 41.106 95.738 41.385 L 95.738 41.385 L 95.738 41.385 Q 95.44 41.663 95.143 42.151 L 95.143 42.151 L 95.143 42.151 Q 94.845 42.64 94.552 43.304 L 94.552 43.304 L 94.552 43.304 Q 94.259 43.968 93.951 44.739 L 93.951 44.739 L 93.951 44.739 Q 93.644 45.511 93.321 46.351 L 93.321 46.351 L 93.321 46.351 Q 92.999 47.19 92.647 48.04 L 92.647 48.04 L 92.647 48.04 Q 92.589 48.206 92.501 48.382 L 92.501 48.382 L 92.501 48.382 Q 92.413 48.558 92.301 48.709 L 92.301 48.709 L 92.301 48.709 Q 92.188 48.86 92.047 48.958 L 92.047 48.958 L 92.047 48.958 Q 91.905 49.056 91.749 49.056 L 91.749 49.056 L 91.749 49.056 Q 91.378 49.056 91.192 48.89 L 91.192 48.89 L 91.192 48.89 Q 91.007 48.724 91.007 48.343 L 91.007 48.343 L 91.007 48.343 Q 91.007 48.235 91.021 48.118 L 91.021 48.118 L 91.021 48.118 Q 91.036 48.001 91.114 47.845 L 91.114 47.845 L 92.999 44.065 L 92.999 44.065 Q 93.37 43.108 93.795 42.483 L 93.795 42.483 L 93.795 42.483 Q 94.22 41.858 94.562 41.478 L 94.562 41.478 L 94.562 41.478 Q 93.761 41.956 92.96 42.435 L 92.96 42.435 L 92.96 42.435 Q 92.159 42.913 91.417 43.357 L 91.417 43.357 L 91.417 43.357 Q 90.675 43.802 90.016 44.197 L 90.016 44.197 L 90.016 44.197 Q 89.356 44.593 88.839 44.896 L 88.839 44.896 L 88.839 44.896 Q 88.321 45.198 87.97 45.394 L 87.97 45.394 L 87.97 45.394 Q 87.618 45.589 87.481 45.647 L 87.481 45.647 L 87.481 45.647 Q 87.403 45.696 87.315 45.696 L 87.315 45.696 L 87.315 45.696 Q 87.208 45.696 87.135 45.618 L 87.135 45.618 L 87.135 45.618 Q 87.062 45.54 87.062 45.413 L 87.062 45.413 L 87.062 45.413 Q 87.062 45.276 87.154 45.115 L 87.154 45.115 L 87.154 45.115 Q 87.247 44.954 87.481 44.817 L 87.481 44.817 L 90.089 43.294 L 90.089 43.294 Q 90.597 42.991 91.114 42.684 L 91.114 42.684 L 91.114 42.684 Q 91.632 42.376 92.086 42.112 L 92.086 42.112 L 92.086 42.112 Q 92.54 41.849 92.892 41.644 L 92.892 41.644 L 92.892 41.644 Q 93.243 41.438 93.429 41.331 L 93.429 41.331 L 93.429 41.331 Q 93.897 41.058 94.342 40.862 L 94.342 40.862 L 94.342 40.862 Q 94.786 40.667 95.226 40.54 L 95.226 40.54 L 95.226 40.54 Q 95.665 40.413 96.119 40.345 L 96.119 40.345 L 96.119 40.345 Q 96.573 40.276 97.071 40.247 L 97.071 40.247 L 97.071 40.247 Q 97.286 40.247 97.525 40.379 L 97.525 40.379 L 97.525 40.379 Q 97.765 40.511 97.965 40.73 L 97.965 40.73 L 97.965 40.73 Q 98.165 40.95 98.297 41.229 L 98.297 41.229 L 98.297 41.229 Q 98.429 41.507 98.429 41.81 Z  M 111.114 45.647 L 111.114 45.647 L 111.114 45.647 Q 109.601 46.517 108.546 47.156 L 108.546 47.156 L 108.546 47.156 Q 107.491 47.796 106.749 48.211 L 106.749 48.211 L 106.749 48.211 Q 106.007 48.626 105.494 48.826 L 105.494 48.826 L 105.494 48.826 Q 104.981 49.026 104.562 49.026 L 104.562 49.026 L 104.562 49.026 Q 104.151 49.026 103.863 48.929 L 103.863 48.929 L 103.863 48.929 Q 103.575 48.831 103.39 48.665 L 103.39 48.665 L 103.39 48.665 Q 103.204 48.499 103.121 48.265 L 103.121 48.265 L 103.121 48.265 Q 103.038 48.03 103.038 47.757 L 103.038 47.757 L 103.038 47.757 Q 103.038 47.552 103.126 47.337 L 103.126 47.337 L 103.126 47.337 Q 103.214 47.122 103.346 46.897 L 103.346 46.897 L 103.346 46.897 Q 103.478 46.673 103.624 46.424 L 103.624 46.424 L 103.624 46.424 Q 103.771 46.175 103.897 45.892 L 103.897 45.892 L 105.382 42.571 L 100.138 45.647 L 100.138 45.647 Q 100.011 45.696 99.962 45.696 L 99.962 45.696 L 99.962 45.696 Q 99.845 45.696 99.752 45.618 L 99.752 45.618 L 99.752 45.618 Q 99.659 45.54 99.659 45.413 L 99.659 45.413 L 99.659 45.413 Q 99.659 45.296 99.762 45.149 L 99.762 45.149 L 99.762 45.149 Q 99.864 45.003 100.138 44.837 L 100.138 44.837 L 102.667 43.362 L 102.667 43.362 Q 103.165 43.069 103.673 42.776 L 103.673 42.776 L 103.673 42.776 Q 104.181 42.483 104.625 42.229 L 104.625 42.229 L 104.625 42.229 Q 105.069 41.976 105.426 41.775 L 105.426 41.775 L 105.426 41.775 Q 105.782 41.575 105.978 41.468 L 105.978 41.468 L 107.237 41.468 L 107.237 41.468 Q 107.276 41.497 107.306 41.565 L 107.306 41.565 L 107.306 41.565 Q 107.335 41.634 107.335 41.771 L 107.335 41.771 L 107.335 41.771 Q 107.335 42.024 107.188 42.488 L 107.188 42.488 L 107.188 42.488 Q 107.042 42.952 106.822 43.528 L 106.822 43.528 L 106.822 43.528 Q 106.603 44.104 106.334 44.734 L 106.334 44.734 L 106.334 44.734 Q 106.065 45.364 105.831 45.931 L 105.831 45.931 L 105.831 45.931 Q 105.597 46.487 105.343 47.044 L 105.343 47.044 L 105.343 47.044 Q 105.089 47.601 104.835 48.187 L 104.835 48.187 L 104.835 48.187 Q 105.099 48.187 105.67 47.923 L 105.67 47.923 L 105.67 47.923 Q 106.241 47.659 107.057 47.205 L 107.057 47.205 L 107.057 47.205 Q 107.872 46.751 108.902 46.141 L 108.902 46.141 L 108.902 46.141 Q 109.933 45.53 111.114 44.837 L 111.114 44.837 L 111.114 44.837 Q 111.153 44.798 111.261 44.798 L 111.261 44.798 L 111.261 44.798 Q 111.378 44.798 111.48 44.876 L 111.48 44.876 L 111.48 44.876 Q 111.583 44.954 111.583 45.091 L 111.583 45.091 L 111.583 45.091 Q 111.583 45.208 111.48 45.35 L 111.48 45.35 L 111.48 45.35 Q 111.378 45.491 111.114 45.647 Z  M 107.813 39.866 L 108.419 38.05 L 108.419 38.05 Q 108.478 38.05 108.639 38.055 L 108.639 38.055 L 108.639 38.055 Q 108.8 38.06 109.005 38.079 L 109.005 38.079 L 109.005 38.079 Q 109.21 38.099 109.435 38.143 L 109.435 38.143 L 109.435 38.143 Q 109.659 38.187 109.845 38.27 L 109.845 38.27 L 109.845 38.27 Q 110.03 38.353 110.157 38.479 L 110.157 38.479 L 110.157 38.479 Q 110.284 38.606 110.294 38.792 L 110.294 38.792 L 108.878 39.866 L 108.233 40.169 L 108.233 40.169 Q 108.058 40.169 107.96 40.071 L 107.96 40.071 L 107.96 40.071 Q 107.862 39.974 107.813 39.866 L 107.813 39.866 L 107.813 39.866 Z  M 112.13 45.052 L 111.114 45.647 L 111.114 45.647 Q 111.017 45.716 110.89 45.716 L 110.89 45.716 L 110.89 45.716 Q 110.763 45.716 110.685 45.643 L 110.685 45.643 L 110.685 45.643 Q 110.606 45.569 110.606 45.452 L 110.606 45.452 L 110.606 45.452 Q 110.606 45.325 110.719 45.164 L 110.719 45.164 L 110.719 45.164 Q 110.831 45.003 111.114 44.837 L 111.114 44.837 L 113.585 43.382 L 113.585 43.382 Q 113.858 42.61 114.293 42.049 L 114.293 42.049 L 114.293 42.049 Q 114.728 41.487 115.25 41.121 L 115.25 41.121 L 115.25 41.121 Q 115.772 40.755 116.344 40.574 L 116.344 40.574 L 116.344 40.574 Q 116.915 40.394 117.452 40.394 L 117.452 40.394 L 117.452 40.394 Q 117.999 40.394 118.355 40.682 L 118.355 40.682 L 118.355 40.682 Q 118.712 40.97 118.712 41.575 L 118.712 41.575 L 118.712 41.575 Q 118.712 41.946 118.443 42.352 L 118.443 42.352 L 118.443 42.352 Q 118.175 42.757 117.711 43.152 L 117.711 43.152 L 117.711 43.152 Q 117.247 43.548 116.622 43.89 L 116.622 43.89 L 116.622 43.89 Q 115.997 44.231 115.294 44.466 L 115.294 44.466 L 115.294 44.466 Q 115.294 44.935 115.279 45.354 L 115.279 45.354 L 115.279 45.354 Q 115.265 45.774 115.265 46.146 L 115.265 46.146 L 115.265 46.146 Q 115.265 46.458 115.284 46.717 L 115.284 46.717 L 115.284 46.717 Q 115.304 46.976 115.367 47.156 L 115.367 47.156 L 115.367 47.156 Q 115.431 47.337 115.543 47.439 L 115.543 47.439 L 115.543 47.439 Q 115.655 47.542 115.831 47.542 L 115.831 47.542 L 115.831 47.542 Q 116.104 47.542 116.49 47.322 L 116.49 47.322 L 116.49 47.322 Q 116.876 47.103 117.462 46.761 L 117.462 46.761 L 117.462 46.761 Q 117.989 46.448 118.81 45.979 L 118.81 45.979 L 118.81 45.979 Q 119.63 45.511 120.812 44.837 L 120.812 44.837 L 120.812 44.837 Q 120.851 44.808 120.919 44.808 L 120.919 44.808 L 120.919 44.808 Q 121.026 44.808 121.109 44.9 L 121.109 44.9 L 121.109 44.9 Q 121.192 44.993 121.192 45.13 L 121.192 45.13 L 121.192 45.13 Q 121.192 45.247 121.109 45.384 L 121.109 45.384 L 121.109 45.384 Q 121.026 45.521 120.812 45.647 L 120.812 45.647 L 120.812 45.647 Q 119.845 46.224 118.937 46.814 L 118.937 46.814 L 118.937 46.814 Q 118.028 47.405 117.223 47.889 L 117.223 47.889 L 117.223 47.889 Q 116.417 48.372 115.733 48.68 L 115.733 48.68 L 115.733 48.68 Q 115.05 48.987 114.542 48.987 L 114.542 48.987 L 114.542 48.987 Q 114.2 48.987 113.941 48.841 L 113.941 48.841 L 113.941 48.841 Q 113.683 48.694 113.502 48.372 L 113.502 48.372 L 113.502 48.372 Q 113.321 48.05 113.229 47.527 L 113.229 47.527 L 113.229 47.527 Q 113.136 47.005 113.136 46.253 L 113.136 46.253 L 113.136 46.253 Q 113.136 46.136 113.15 45.877 L 113.15 45.877 L 113.15 45.877 Q 113.165 45.618 113.199 45.32 L 113.199 45.32 L 113.199 45.32 Q 113.233 45.022 113.282 44.739 L 113.282 44.739 L 113.282 44.739 Q 113.331 44.456 113.399 44.3 L 113.399 44.3 L 113.399 44.3 Q 113.331 44.339 113.199 44.417 L 113.199 44.417 L 113.199 44.417 Q 113.067 44.495 112.892 44.598 L 112.892 44.598 L 112.892 44.598 Q 112.716 44.7 112.521 44.817 L 112.521 44.817 L 112.521 44.817 Q 112.325 44.935 112.13 45.052 L 112.13 45.052 L 112.13 45.052 Z  M 117.657 41.653 L 117.657 41.653 L 117.657 41.653 Q 117.677 41.595 117.677 41.526 L 117.677 41.526 L 117.677 41.526 Q 117.677 41.282 117.594 41.165 L 117.594 41.165 L 117.594 41.165 Q 117.511 41.048 117.315 41.048 L 117.315 41.048 L 117.315 41.048 Q 117.091 41.048 116.798 41.219 L 116.798 41.219 L 116.798 41.219 Q 116.505 41.39 116.227 41.722 L 116.227 41.722 L 116.227 41.722 Q 115.948 42.054 115.729 42.552 L 115.729 42.552 L 115.729 42.552 Q 115.509 43.05 115.431 43.694 L 115.431 43.694 L 115.431 43.694 Q 115.831 43.489 116.212 43.221 L 116.212 43.221 L 116.212 43.221 Q 116.593 42.952 116.9 42.674 L 116.9 42.674 L 116.9 42.674 Q 117.208 42.396 117.408 42.127 L 117.408 42.127 L 117.408 42.127 Q 117.608 41.858 117.657 41.653 Z " fill-rule="evenodd" fill="rgb(255,255,255)"/><path d=" M 32.53 16.837 L 32.53 16.837 L 32.53 16.837 Q 32.647 16.778 32.745 16.778 L 32.745 16.778 L 32.745 16.778 Q 32.853 16.778 32.911 16.852 L 32.911 16.852 L 32.911 16.852 Q 32.97 16.925 32.97 17.032 L 32.97 17.032 L 32.97 17.032 Q 32.97 17.169 32.862 17.34 L 32.862 17.34 L 32.862 17.34 Q 32.755 17.511 32.53 17.647 L 32.53 17.647 L 32.53 17.647 Q 31.974 17.979 31.354 18.351 L 31.354 18.351 L 31.354 18.351 Q 30.733 18.722 30.104 19.098 L 30.104 19.098 L 30.104 19.098 Q 29.474 19.474 28.854 19.82 L 28.854 19.82 L 28.854 19.82 Q 28.233 20.167 27.682 20.436 L 27.682 20.436 L 27.682 20.436 Q 27.13 20.704 26.676 20.88 L 26.676 20.88 L 26.676 20.88 Q 26.222 21.056 25.909 21.085 L 25.909 21.085 L 25.909 21.085 Q 25.909 21.124 25.665 21.266 L 25.665 21.266 L 25.665 21.266 Q 25.421 21.407 25.064 21.563 L 25.064 21.563 L 25.064 21.563 Q 24.708 21.72 24.308 21.847 L 24.308 21.847 L 24.308 21.847 Q 23.907 21.974 23.595 21.974 L 23.595 21.974 L 23.595 21.974 Q 23.351 21.974 23.189 21.871 L 23.189 21.871 L 23.189 21.871 Q 23.028 21.769 23.028 21.515 L 23.028 21.515 L 23.028 21.515 Q 23.028 21.495 23.038 21.446 L 23.038 21.446 L 23.038 21.446 Q 23.048 21.397 23.048 21.368 L 23.048 21.368 L 20.636 7.208 L 20.636 7.208 Q 19.347 10.499 18.316 13.17 L 18.316 13.17 L 18.316 13.17 Q 17.286 15.841 16.329 17.853 L 16.329 17.853 L 16.329 17.853 Q 17.198 18.058 17.828 18.39 L 17.828 18.39 L 17.828 18.39 Q 18.458 18.722 18.868 19.146 L 18.868 19.146 L 18.868 19.146 Q 19.278 19.571 19.474 20.089 L 19.474 20.089 L 19.474 20.089 Q 19.669 20.606 19.669 21.173 L 19.669 21.173 L 19.669 21.173 Q 19.669 21.788 19.43 22.506 L 19.43 22.506 L 19.43 22.506 Q 19.19 23.224 18.766 23.961 L 18.766 23.961 L 18.766 23.961 Q 18.341 24.698 17.755 25.421 L 17.755 25.421 L 17.755 25.421 Q 17.169 26.144 16.476 26.769 L 16.476 26.769 L 16.476 26.769 Q 16.397 26.837 16.246 26.939 L 16.246 26.939 L 16.246 26.939 Q 16.095 27.042 15.924 27.14 L 15.924 27.14 L 15.924 27.14 Q 15.753 27.237 15.592 27.306 L 15.592 27.306 L 15.592 27.306 Q 15.431 27.374 15.333 27.374 L 15.333 27.374 L 15.333 27.374 Q 15.245 27.374 15.245 27.296 L 15.245 27.296 L 15.245 27.296 Q 15.245 27.208 15.382 26.964 L 15.382 26.964 L 15.382 26.964 Q 15.909 26.065 16.51 25.274 L 16.51 25.274 L 16.51 25.274 Q 17.11 24.483 17.613 23.766 L 17.613 23.766 L 17.613 23.766 Q 18.116 23.048 18.448 22.394 L 18.448 22.394 L 18.448 22.394 Q 18.78 21.739 18.78 21.104 L 18.78 21.104 L 18.78 21.104 Q 18.78 20.636 18.624 20.221 L 18.624 20.221 L 18.624 20.221 Q 18.468 19.806 18.131 19.469 L 18.131 19.469 L 18.131 19.469 Q 17.794 19.132 17.271 18.888 L 17.271 18.888 L 17.271 18.888 Q 16.749 18.644 16.007 18.507 L 16.007 18.507 L 16.007 18.507 Q 15.606 19.786 14.859 20.724 L 14.859 20.724 L 14.859 20.724 Q 14.112 21.661 13.204 22.281 L 13.204 22.281 L 13.204 22.281 Q 12.296 22.901 11.314 23.204 L 11.314 23.204 L 11.314 23.204 Q 10.333 23.507 9.464 23.507 L 9.464 23.507 L 9.464 23.507 Q 8.897 23.507 8.414 23.38 L 8.414 23.38 L 8.414 23.38 Q 7.931 23.253 7.574 23.004 L 7.574 23.004 L 7.574 23.004 Q 7.218 22.755 7.013 22.389 L 7.013 22.389 L 7.013 22.389 Q 6.808 22.022 6.808 21.534 L 6.808 21.534 L 6.808 21.534 Q 6.808 21.114 7.042 20.65 L 7.042 20.65 L 7.042 20.65 Q 7.276 20.187 7.696 19.737 L 7.696 19.737 L 7.696 19.737 Q 8.116 19.288 8.702 18.888 L 8.702 18.888 L 8.702 18.888 Q 9.288 18.487 9.991 18.185 L 9.991 18.185 L 9.991 18.185 Q 10.694 17.882 11.495 17.701 L 11.495 17.701 L 11.495 17.701 Q 12.296 17.521 13.146 17.521 L 13.146 17.521 L 13.146 17.521 Q 13.556 17.521 13.927 17.54 L 13.927 17.54 L 13.927 17.54 Q 14.298 17.56 14.64 17.589 L 14.64 17.589 L 14.64 17.589 Q 15.196 16.476 15.753 15.245 L 15.753 15.245 L 15.753 15.245 Q 16.31 14.015 16.856 12.765 L 16.856 12.765 L 16.856 12.765 Q 17.403 11.515 17.936 10.284 L 17.936 10.284 L 17.936 10.284 Q 18.468 9.054 18.98 7.936 L 18.98 7.936 L 18.98 7.936 Q 19.493 6.817 19.981 5.865 L 19.981 5.865 L 19.981 5.865 Q 20.47 4.913 20.919 4.22 L 20.919 4.22 L 20.919 4.22 Q 21.368 3.526 21.783 3.131 L 21.783 3.131 L 21.783 3.131 Q 22.198 2.735 22.569 2.735 L 22.569 2.735 L 22.569 2.735 Q 22.784 2.735 22.931 2.818 L 22.931 2.818 L 22.931 2.818 Q 23.077 2.901 23.16 3.033 L 23.16 3.033 L 23.16 3.033 Q 23.243 3.165 23.277 3.341 L 23.277 3.341 L 23.277 3.341 Q 23.312 3.517 23.312 3.692 L 23.312 3.692 L 23.312 3.692 Q 23.312 3.849 23.292 4 L 23.292 4 L 23.292 4 Q 23.272 4.151 23.253 4.273 L 23.253 4.273 L 23.253 4.273 Q 23.233 4.396 23.214 4.479 L 23.214 4.479 L 23.214 4.479 Q 23.194 4.562 23.194 4.571 L 23.194 4.571 L 25.675 19.151 L 30.968 5.792 L 30.968 5.792 Q 31.114 5.44 31.324 5.045 L 31.324 5.045 L 31.324 5.045 Q 31.534 4.649 31.788 4.313 L 31.788 4.313 L 31.788 4.313 Q 32.042 3.976 32.335 3.751 L 32.335 3.751 L 32.335 3.751 Q 32.628 3.526 32.95 3.526 L 32.95 3.526 L 32.95 3.526 Q 33.282 3.526 33.482 3.58 L 33.482 3.58 L 33.482 3.58 Q 33.683 3.634 33.795 3.712 L 33.795 3.712 L 33.795 3.712 Q 33.907 3.79 33.951 3.893 L 33.951 3.893 L 33.951 3.893 Q 33.995 3.995 34.015 4.093 L 34.015 4.093 L 26.437 19.972 L 26.437 19.972 Q 27.188 19.737 27.931 19.391 L 27.931 19.391 L 27.931 19.391 Q 28.673 19.044 29.425 18.634 L 29.425 18.634 L 29.425 18.634 Q 30.177 18.224 30.948 17.765 L 30.948 17.765 L 30.948 17.765 Q 31.72 17.306 32.53 16.837 Z  M 14.259 18.351 L 14.259 18.351 L 14.259 18.351 Q 14.259 18.312 14.22 18.312 L 14.22 18.312 L 14.22 18.312 Q 13.497 18.312 12.755 18.468 L 12.755 18.468 L 12.755 18.468 Q 12.013 18.624 11.319 18.888 L 11.319 18.888 L 11.319 18.888 Q 10.626 19.151 10.016 19.498 L 10.016 19.498 L 10.016 19.498 Q 9.405 19.845 8.946 20.226 L 8.946 20.226 L 8.946 20.226 Q 8.487 20.606 8.224 20.992 L 8.224 20.992 L 8.224 20.992 Q 7.96 21.378 7.96 21.72 L 7.96 21.72 L 7.96 21.72 Q 7.96 22.276 8.312 22.545 L 8.312 22.545 L 8.312 22.545 Q 8.663 22.813 9.229 22.813 L 9.229 22.813 L 9.229 22.813 Q 9.825 22.813 10.567 22.521 L 10.567 22.521 L 10.567 22.521 Q 11.31 22.228 12.027 21.661 L 12.027 21.661 L 12.027 21.661 Q 12.745 21.095 13.346 20.265 L 13.346 20.265 L 13.346 20.265 Q 13.946 19.435 14.259 18.351 Z  M 35.353 15.987 L 32.53 17.647 L 32.53 17.647 Q 32.462 17.687 32.403 17.687 L 32.403 17.687 L 32.403 17.687 Q 32.306 17.687 32.257 17.604 L 32.257 17.604 L 32.257 17.604 Q 32.208 17.521 32.208 17.394 L 32.208 17.394 L 32.208 17.394 Q 32.208 17.257 32.276 17.101 L 32.276 17.101 L 32.276 17.101 Q 32.345 16.944 32.53 16.837 L 32.53 16.837 L 36.144 14.708 L 36.144 14.708 Q 36.817 14.317 37.579 14.034 L 37.579 14.034 L 37.579 14.034 Q 38.341 13.751 39.127 13.57 L 39.127 13.57 L 39.127 13.57 Q 39.913 13.39 40.685 13.307 L 40.685 13.307 L 40.685 13.307 Q 41.456 13.224 42.14 13.224 L 42.14 13.224 L 42.14 13.224 Q 42.53 13.224 42.872 13.277 L 42.872 13.277 L 42.872 13.277 Q 43.214 13.331 43.463 13.434 L 43.463 13.434 L 43.463 13.434 Q 43.712 13.536 43.854 13.683 L 43.854 13.683 L 43.854 13.683 Q 43.995 13.829 43.995 14.015 L 43.995 14.015 L 43.995 14.015 Q 43.995 14.151 43.897 14.21 L 43.897 14.21 L 43.897 14.21 Q 43.8 14.269 43.668 14.293 L 43.668 14.293 L 43.668 14.293 Q 43.536 14.317 43.395 14.327 L 43.395 14.327 L 43.395 14.327 Q 43.253 14.337 43.175 14.376 L 43.175 14.376 L 43.175 14.376 Q 43.116 14.562 42.99 14.947 L 42.99 14.947 L 42.99 14.947 Q 42.863 15.333 42.731 15.737 L 42.731 15.737 L 42.731 15.737 Q 42.599 16.14 42.495 16.457 L 42.495 16.457 L 42.495 16.457 Q 42.391 16.774 42.376 16.821 L 42.376 16.821 L 42.376 16.821 Q 42.242 17.229 42.035 17.863 L 42.035 17.863 L 42.035 17.863 Q 41.827 18.497 41.563 19.552 L 41.563 19.552 L 41.563 19.552 Q 41.573 19.552 41.783 19.439 L 41.783 19.439 L 41.783 19.439 Q 41.993 19.327 42.33 19.142 L 42.33 19.142 L 42.33 19.142 Q 42.667 18.956 43.097 18.712 L 43.097 18.712 L 43.097 18.712 Q 43.526 18.468 43.985 18.214 L 43.985 18.214 L 46.319 16.837 L 46.319 16.837 Q 46.456 16.759 46.554 16.759 L 46.554 16.759 L 46.554 16.759 Q 46.661 16.759 46.72 16.832 L 46.72 16.832 L 46.72 16.832 Q 46.778 16.905 46.778 17.013 L 46.778 17.013 L 46.778 17.013 Q 46.778 17.149 46.671 17.33 L 46.671 17.33 L 46.671 17.33 Q 46.563 17.511 46.319 17.647 L 46.319 17.647 L 41.124 20.694 L 41.124 20.694 Q 40.929 20.812 40.763 20.86 L 40.763 20.86 L 40.763 20.86 Q 40.597 20.909 40.46 20.909 L 40.46 20.909 L 40.46 20.909 Q 40.265 20.909 40.128 20.821 L 40.128 20.821 L 40.128 20.821 Q 39.991 20.733 39.903 20.577 L 39.903 20.577 L 39.903 20.577 Q 39.815 20.421 39.771 20.221 L 39.771 20.221 L 39.771 20.221 Q 39.728 20.021 39.728 19.796 L 39.728 19.796 L 39.728 19.796 Q 39.728 19.552 39.776 19.308 L 39.776 19.308 L 39.776 19.308 Q 39.825 19.063 39.903 18.839 L 39.903 18.839 L 39.903 18.839 Q 39.62 19.396 39.244 19.806 L 39.244 19.806 L 39.244 19.806 Q 38.868 20.216 38.443 20.494 L 38.443 20.494 L 38.443 20.494 Q 38.019 20.772 37.569 20.909 L 37.569 20.909 L 37.569 20.909 Q 37.12 21.046 36.69 21.046 L 36.69 21.046 L 36.69 21.046 Q 36.261 21.046 35.88 20.909 L 35.88 20.909 L 35.88 20.909 Q 35.499 20.772 35.211 20.504 L 35.211 20.504 L 35.211 20.504 Q 34.923 20.235 34.757 19.835 L 34.757 19.835 L 34.757 19.835 Q 34.591 19.435 34.591 18.907 L 34.591 18.907 L 34.591 18.907 Q 34.591 18.595 34.654 18.214 L 34.654 18.214 L 34.654 18.214 Q 34.718 17.833 34.825 17.442 L 34.825 17.442 L 34.825 17.442 Q 34.933 17.052 35.069 16.676 L 35.069 16.676 L 35.069 16.676 Q 35.206 16.3 35.353 15.987 L 35.353 15.987 L 35.353 15.987 Z  M 40.372 16.915 L 41.407 14.054 L 41.407 14.054 Q 40.626 14.054 39.913 14.317 L 39.913 14.317 L 39.913 14.317 Q 39.2 14.581 38.59 15.011 L 38.59 15.011 L 38.59 15.011 Q 37.979 15.44 37.486 15.992 L 37.486 15.992 L 37.486 15.992 Q 36.993 16.544 36.646 17.125 L 36.646 17.125 L 36.646 17.125 Q 36.3 17.706 36.109 18.272 L 36.109 18.272 L 36.109 18.272 Q 35.919 18.839 35.919 19.288 L 35.919 19.288 L 35.919 19.288 Q 35.919 19.786 36.139 20.094 L 36.139 20.094 L 36.139 20.094 Q 36.358 20.401 36.856 20.401 L 36.856 20.401 L 36.856 20.401 Q 37.149 20.401 37.496 20.221 L 37.496 20.221 L 37.496 20.221 Q 37.843 20.04 38.199 19.742 L 38.199 19.742 L 38.199 19.742 Q 38.556 19.444 38.902 19.068 L 38.902 19.068 L 38.902 19.068 Q 39.249 18.692 39.542 18.307 L 39.542 18.307 L 39.542 18.307 Q 39.835 17.921 40.055 17.555 L 40.055 17.555 L 40.055 17.555 Q 40.274 17.188 40.372 16.915 L 40.372 16.915 L 40.372 16.915 Z  M 48.683 18.468 L 48.683 18.468 L 48.683 18.468 Q 48.683 18.106 48.902 17.599 L 48.902 17.599 L 48.902 17.599 Q 49.122 17.091 49.479 16.563 L 49.479 16.563 L 49.479 16.563 Q 49.835 16.036 50.284 15.553 L 50.284 15.553 L 50.284 15.553 Q 50.733 15.069 51.183 14.767 L 51.183 14.767 L 46.319 17.647 L 46.319 17.647 Q 46.28 17.667 46.246 17.672 L 46.246 17.672 L 46.246 17.672 Q 46.212 17.677 46.183 17.677 L 46.183 17.677 L 46.183 17.677 Q 46.075 17.677 46.017 17.599 L 46.017 17.599 L 46.017 17.599 Q 45.958 17.521 45.958 17.403 L 45.958 17.403 L 45.958 17.403 Q 45.958 17.267 46.046 17.105 L 46.046 17.105 L 46.046 17.105 Q 46.134 16.944 46.319 16.837 L 46.319 16.837 L 49.005 15.206 L 49.005 15.206 Q 49.552 14.874 50.245 14.498 L 50.245 14.498 L 50.245 14.498 Q 50.938 14.122 51.686 13.81 L 51.686 13.81 L 51.686 13.81 Q 52.433 13.497 53.194 13.287 L 53.194 13.287 L 53.194 13.287 Q 53.956 13.077 54.64 13.077 L 54.64 13.077 L 54.64 13.077 Q 55.274 13.077 55.763 13.272 L 55.763 13.272 L 58.312 8.126 L 58.312 8.126 Q 58.409 7.921 58.521 7.682 L 58.521 7.682 L 58.521 7.682 Q 58.634 7.442 58.814 7.237 L 58.814 7.237 L 58.814 7.237 Q 58.995 7.032 59.273 6.891 L 59.273 6.891 L 59.273 6.891 Q 59.552 6.749 59.991 6.749 L 59.991 6.749 L 59.991 6.749 Q 60.128 6.749 60.162 6.842 L 60.162 6.842 L 60.162 6.842 Q 60.196 6.935 60.196 7.081 L 60.196 7.081 L 60.196 7.081 Q 60.177 7.218 60.128 7.389 L 60.128 7.389 L 60.128 7.389 Q 60.079 7.56 60.025 7.726 L 60.025 7.726 L 60.025 7.726 Q 59.972 7.892 59.923 8.028 L 59.923 8.028 L 59.923 8.028 Q 59.874 8.165 59.845 8.233 L 59.845 8.233 L 56.935 14.562 L 56.935 14.562 Q 56.72 15.196 56.402 15.875 L 56.402 15.875 L 56.402 15.875 Q 56.085 16.554 55.787 17.193 L 55.787 17.193 L 55.787 17.193 Q 55.489 17.833 55.279 18.39 L 55.279 18.39 L 55.279 18.39 Q 55.069 18.946 55.069 19.337 L 55.069 19.337 L 55.069 19.337 Q 55.069 19.474 55.104 19.601 L 55.104 19.601 L 55.104 19.601 Q 55.138 19.728 55.235 19.728 L 55.235 19.728 L 55.235 19.728 Q 55.362 19.728 55.621 19.63 L 55.621 19.63 L 55.621 19.63 Q 55.88 19.532 56.212 19.356 L 56.212 19.356 L 56.212 19.356 Q 56.544 19.181 56.93 18.941 L 56.93 18.941 L 56.93 18.941 Q 57.315 18.702 57.696 18.429 L 57.696 18.429 L 60.235 16.837 L 60.235 16.837 Q 60.313 16.798 60.353 16.798 L 60.353 16.798 L 60.353 16.798 Q 60.431 16.798 60.475 16.876 L 60.475 16.876 L 60.475 16.876 Q 60.519 16.954 60.519 17.062 L 60.519 17.062 L 60.519 17.062 Q 60.519 17.228 60.445 17.389 L 60.445 17.389 L 60.445 17.389 Q 60.372 17.55 60.235 17.647 L 60.235 17.647 L 60.235 17.647 Q 59.679 18.019 59.088 18.414 L 59.088 18.414 L 59.088 18.414 Q 58.497 18.81 57.901 19.195 L 57.901 19.195 L 57.901 19.195 Q 57.306 19.581 56.734 19.933 L 56.734 19.933 L 56.734 19.933 Q 56.163 20.284 55.636 20.577 L 55.636 20.577 L 55.636 20.577 Q 54.884 20.997 54.288 20.997 L 54.288 20.997 L 54.288 20.997 Q 53.897 20.997 53.761 20.782 L 53.761 20.782 L 53.761 20.782 Q 53.624 20.567 53.624 20.226 L 53.624 20.226 L 53.624 20.226 Q 53.624 20.021 53.658 19.801 L 53.658 19.801 L 53.658 19.801 Q 53.692 19.581 53.761 19.327 L 53.761 19.327 L 53.761 19.327 Q 53.497 19.708 53.155 20.011 L 53.155 20.011 L 53.155 20.011 Q 52.813 20.313 52.428 20.528 L 52.428 20.528 L 52.428 20.528 Q 52.042 20.743 51.627 20.855 L 51.627 20.855 L 51.627 20.855 Q 51.212 20.968 50.821 20.968 L 50.821 20.968 L 50.821 20.968 Q 50.392 20.968 50.001 20.826 L 50.001 20.826 L 50.001 20.826 Q 49.61 20.685 49.317 20.377 L 49.317 20.377 L 49.317 20.377 Q 49.024 20.069 48.854 19.601 L 48.854 19.601 L 48.854 19.601 Q 48.683 19.132 48.683 18.468 Z  M 55.05 15.069 L 55.05 15.069 L 55.05 15.069 Q 55.089 14.962 55.152 14.806 L 55.152 14.806 L 55.152 14.806 Q 55.216 14.649 55.279 14.503 L 55.279 14.503 L 55.279 14.503 Q 55.343 14.356 55.387 14.234 L 55.387 14.234 L 55.387 14.234 Q 55.431 14.112 55.431 14.063 L 55.431 14.063 L 55.431 14.063 Q 55.431 14.005 55.206 13.976 L 55.206 13.976 L 55.206 13.976 Q 54.981 13.946 54.61 13.946 L 54.61 13.946 L 54.61 13.946 Q 54.122 13.946 53.619 14.205 L 53.619 14.205 L 53.619 14.205 Q 53.116 14.464 52.643 14.884 L 52.643 14.884 L 52.643 14.884 Q 52.169 15.304 51.754 15.846 L 51.754 15.846 L 51.754 15.846 Q 51.339 16.388 51.031 16.959 L 51.031 16.959 L 51.031 16.959 Q 50.724 17.53 50.543 18.087 L 50.543 18.087 L 50.543 18.087 Q 50.362 18.644 50.362 19.093 L 50.362 19.093 L 50.362 19.093 Q 50.362 19.698 50.567 19.957 L 50.567 19.957 L 50.567 19.957 Q 50.772 20.216 51.104 20.216 L 51.104 20.216 L 51.104 20.216 Q 51.554 20.216 52.076 19.835 L 52.076 19.835 L 52.076 19.835 Q 52.599 19.454 53.126 18.775 L 53.126 18.775 L 53.126 18.775 Q 53.653 18.097 54.151 17.149 L 54.151 17.149 L 54.151 17.149 Q 54.649 16.202 55.05 15.069 Z  M 71.212 17.647 L 71.212 17.647 L 71.212 17.647 Q 69.698 18.517 68.644 19.156 L 68.644 19.156 L 68.644 19.156 Q 67.589 19.796 66.847 20.211 L 66.847 20.211 L 66.847 20.211 Q 66.104 20.626 65.592 20.826 L 65.592 20.826 L 65.592 20.826 Q 65.079 21.026 64.659 21.026 L 64.659 21.026 L 64.659 21.026 Q 64.249 21.026 63.961 20.929 L 63.961 20.929 L 63.961 20.929 Q 63.673 20.831 63.487 20.665 L 63.487 20.665 L 63.487 20.665 Q 63.302 20.499 63.219 20.265 L 63.219 20.265 L 63.219 20.265 Q 63.136 20.03 63.136 19.757 L 63.136 19.757 L 63.136 19.757 Q 63.136 19.552 63.224 19.337 L 63.224 19.337 L 63.224 19.337 Q 63.312 19.122 63.443 18.897 L 63.443 18.897 L 63.443 18.897 Q 63.575 18.673 63.722 18.424 L 63.722 18.424 L 63.722 18.424 Q 63.868 18.175 63.995 17.892 L 63.995 17.892 L 65.479 14.571 L 60.235 17.647 L 60.235 17.647 Q 60.108 17.696 60.06 17.696 L 60.06 17.696 L 60.06 17.696 Q 59.942 17.696 59.85 17.618 L 59.85 17.618 L 59.85 17.618 Q 59.757 17.54 59.757 17.413 L 59.757 17.413 L 59.757 17.413 Q 59.757 17.296 59.859 17.149 L 59.859 17.149 L 59.859 17.149 Q 59.962 17.003 60.235 16.837 L 60.235 16.837 L 62.765 15.362 L 62.765 15.362 Q 63.263 15.069 63.771 14.776 L 63.771 14.776 L 63.771 14.776 Q 64.278 14.483 64.723 14.229 L 64.723 14.229 L 64.723 14.229 Q 65.167 13.976 65.523 13.775 L 65.523 13.775 L 65.523 13.775 Q 65.88 13.575 66.075 13.468 L 66.075 13.468 L 67.335 13.468 L 67.335 13.468 Q 67.374 13.497 67.403 13.565 L 67.403 13.565 L 67.403 13.565 Q 67.433 13.634 67.433 13.771 L 67.433 13.771 L 67.433 13.771 Q 67.433 14.024 67.286 14.488 L 67.286 14.488 L 67.286 14.488 Q 67.14 14.952 66.92 15.528 L 66.92 15.528 L 66.92 15.528 Q 66.7 16.104 66.432 16.734 L 66.432 16.734 L 66.432 16.734 Q 66.163 17.364 65.929 17.931 L 65.929 17.931 L 65.929 17.931 Q 65.694 18.487 65.44 19.044 L 65.44 19.044 L 65.44 19.044 Q 65.187 19.601 64.933 20.187 L 64.933 20.187 L 64.933 20.187 Q 65.196 20.187 65.768 19.923 L 65.768 19.923 L 65.768 19.923 Q 66.339 19.659 67.154 19.205 L 67.154 19.205 L 67.154 19.205 Q 67.97 18.751 69 18.141 L 69 18.141 L 69 18.141 Q 70.03 17.53 71.212 16.837 L 71.212 16.837 L 71.212 16.837 Q 71.251 16.798 71.358 16.798 L 71.358 16.798 L 71.358 16.798 Q 71.476 16.798 71.578 16.876 L 71.578 16.876 L 71.578 16.876 Q 71.681 16.954 71.681 17.091 L 71.681 17.091 L 71.681 17.091 Q 71.681 17.208 71.578 17.35 L 71.578 17.35 L 71.578 17.35 Q 71.476 17.491 71.212 17.647 Z  M 67.911 11.866 L 68.517 10.05 L 68.517 10.05 Q 68.575 10.05 68.736 10.055 L 68.736 10.055 L 68.736 10.055 Q 68.897 10.06 69.103 10.079 L 69.103 10.079 L 69.103 10.079 Q 69.308 10.099 69.532 10.143 L 69.532 10.143 L 69.532 10.143 Q 69.757 10.187 69.942 10.27 L 69.942 10.27 L 69.942 10.27 Q 70.128 10.353 70.255 10.479 L 70.255 10.479 L 70.255 10.479 Q 70.382 10.606 70.392 10.792 L 70.392 10.792 L 68.976 11.866 L 68.331 12.169 L 68.331 12.169 Q 68.155 12.169 68.058 12.071 L 68.058 12.071 L 68.058 12.071 Q 67.96 11.974 67.911 11.866 L 67.911 11.866 L 67.911 11.866 Z  M 83.019 14.522 L 83.019 14.522 L 83.019 14.522 Q 82.647 14.522 82.091 14.732 L 82.091 14.732 L 82.091 14.732 Q 81.534 14.942 80.87 15.309 L 80.87 15.309 L 80.87 15.309 Q 80.206 15.675 79.488 16.173 L 79.488 16.173 L 79.488 16.173 Q 78.771 16.671 78.082 17.257 L 78.082 17.257 L 78.082 17.257 Q 77.394 17.843 76.773 18.492 L 76.773 18.492 L 76.773 18.492 Q 76.153 19.142 75.694 19.796 L 75.694 19.796 L 75.694 19.796 Q 75.646 19.845 75.646 20.016 L 75.646 20.016 L 75.646 20.016 Q 75.646 20.187 75.592 20.372 L 75.592 20.372 L 75.592 20.372 Q 75.538 20.558 75.382 20.704 L 75.382 20.704 L 75.382 20.704 Q 75.226 20.851 74.864 20.851 L 74.864 20.851 L 74.864 20.851 Q 74.61 20.851 74.469 20.792 L 74.469 20.792 L 74.469 20.792 Q 74.327 20.733 74.254 20.631 L 74.254 20.631 L 74.254 20.631 Q 74.181 20.528 74.161 20.387 L 74.161 20.387 L 74.161 20.387 Q 74.142 20.245 74.142 20.069 L 74.142 20.069 L 74.142 20.069 Q 74.142 19.894 74.239 19.552 L 74.239 19.552 L 74.239 19.552 Q 74.337 19.21 74.493 18.761 L 74.493 18.761 L 74.493 18.761 Q 74.649 18.312 74.845 17.794 L 74.845 17.794 L 74.845 17.794 Q 75.04 17.276 75.24 16.759 L 75.24 16.759 L 75.24 16.759 Q 75.44 16.241 75.621 15.753 L 75.621 15.753 L 75.621 15.753 Q 75.802 15.265 75.929 14.874 L 75.929 14.874 L 71.212 17.647 L 71.212 17.647 Q 71.163 17.657 71.129 17.662 L 71.129 17.662 L 71.129 17.662 Q 71.095 17.667 71.075 17.667 L 71.075 17.667 L 71.075 17.667 Q 70.938 17.667 70.875 17.594 L 70.875 17.594 L 70.875 17.594 Q 70.812 17.521 70.812 17.413 L 70.812 17.413 L 70.812 17.413 Q 70.812 17.276 70.914 17.115 L 70.914 17.115 L 70.914 17.115 Q 71.017 16.954 71.212 16.837 L 71.212 16.837 L 71.212 16.837 Q 72.677 15.968 73.629 15.406 L 73.629 15.406 L 73.629 15.406 Q 74.581 14.845 75.157 14.503 L 75.157 14.503 L 75.157 14.503 Q 75.733 14.161 76.021 13.995 L 76.021 13.995 L 76.021 13.995 Q 76.31 13.829 76.456 13.751 L 76.456 13.751 L 76.456 13.751 Q 76.593 13.673 76.705 13.644 L 76.705 13.644 L 76.705 13.644 Q 76.817 13.614 76.954 13.614 L 76.954 13.614 L 76.954 13.614 Q 77.237 13.614 77.418 13.78 L 77.418 13.78 L 77.418 13.78 Q 77.599 13.946 77.599 14.151 L 77.599 14.151 L 77.599 14.151 Q 77.599 14.356 77.472 14.713 L 77.472 14.713 L 77.472 14.713 Q 77.345 15.069 77.159 15.489 L 77.159 15.489 L 77.159 15.489 Q 76.974 15.909 76.778 16.344 L 76.778 16.344 L 76.778 16.344 Q 76.583 16.778 76.446 17.149 L 76.446 17.149 L 76.446 17.149 Q 76.388 17.296 76.354 17.389 L 76.354 17.389 L 76.354 17.389 Q 76.319 17.481 76.275 17.599 L 76.275 17.599 L 76.275 17.599 Q 76.231 17.716 76.153 17.896 L 76.153 17.896 L 76.153 17.896 Q 76.075 18.077 75.929 18.399 L 75.929 18.399 L 75.929 18.399 Q 76.339 17.872 76.891 17.296 L 76.891 17.296 L 76.891 17.296 Q 77.442 16.72 78.092 16.168 L 78.092 16.168 L 78.092 16.168 Q 78.741 15.616 79.479 15.118 L 79.479 15.118 L 79.479 15.118 Q 80.216 14.62 81.002 14.244 L 81.002 14.244 L 81.002 14.244 Q 81.788 13.868 82.608 13.648 L 82.608 13.648 L 82.608 13.648 Q 83.429 13.429 84.239 13.429 L 84.239 13.429 L 84.239 13.429 Q 84.737 13.429 84.928 13.639 L 84.928 13.639 L 84.928 13.639 Q 85.118 13.849 85.118 14.21 L 85.118 14.21 L 85.118 14.21 Q 85.118 14.503 85.011 14.923 L 85.011 14.923 L 85.011 14.923 Q 84.903 15.343 84.718 15.836 L 84.718 15.836 L 84.718 15.836 Q 84.532 16.329 84.298 16.891 L 84.298 16.891 L 84.298 16.891 Q 84.063 17.452 83.805 18.023 L 83.805 18.023 L 83.805 18.023 Q 83.546 18.595 83.287 19.171 L 83.287 19.171 L 83.287 19.171 Q 83.028 19.747 82.804 20.274 L 82.804 20.274 L 82.804 20.274 Q 83.36 20.05 83.966 19.688 L 83.966 19.688 L 83.966 19.688 Q 84.571 19.327 85.26 18.878 L 85.26 18.878 L 85.26 18.878 Q 85.948 18.429 86.715 17.906 L 86.715 17.906 L 86.715 17.906 Q 87.481 17.384 88.36 16.837 L 88.36 16.837 L 88.36 16.837 Q 88.429 16.798 88.546 16.798 L 88.546 16.798 L 88.546 16.798 Q 88.78 16.798 88.78 17.062 L 88.78 17.062 L 88.78 17.062 Q 88.78 17.198 88.673 17.359 L 88.673 17.359 L 88.673 17.359 Q 88.565 17.521 88.36 17.647 L 88.36 17.647 L 88.36 17.647 Q 87.198 18.37 86.261 19.024 L 86.261 19.024 L 86.261 19.024 Q 85.323 19.679 84.547 20.187 L 84.547 20.187 L 84.547 20.187 Q 83.771 20.694 83.131 20.992 L 83.131 20.992 L 83.131 20.992 Q 82.491 21.29 81.944 21.29 L 81.944 21.29 L 81.944 21.29 Q 81.612 21.29 81.378 21.207 L 81.378 21.207 L 81.378 21.207 Q 81.144 21.124 80.992 20.987 L 80.992 20.987 L 80.992 20.987 Q 80.841 20.851 80.768 20.66 L 80.768 20.66 L 80.768 20.66 Q 80.694 20.47 80.694 20.265 L 80.694 20.265 L 80.694 20.265 Q 80.694 20.04 80.787 19.82 L 80.787 19.82 L 80.787 19.82 Q 80.88 19.601 81.046 19.347 L 81.046 19.347 L 81.046 19.347 Q 81.349 18.683 81.72 17.955 L 81.72 17.955 L 81.72 17.955 Q 82.091 17.228 82.403 16.573 L 82.403 16.573 L 82.403 16.573 Q 82.716 15.919 82.931 15.411 L 82.931 15.411 L 82.931 15.411 Q 83.146 14.903 83.146 14.679 L 83.146 14.679 L 83.146 14.679 Q 83.146 14.522 83.019 14.522 Z  M 89.376 17.052 L 88.36 17.647 L 88.36 17.647 Q 88.263 17.716 88.136 17.716 L 88.136 17.716 L 88.136 17.716 Q 88.009 17.716 87.931 17.643 L 87.931 17.643 L 87.931 17.643 Q 87.853 17.569 87.853 17.452 L 87.853 17.452 L 87.853 17.452 Q 87.853 17.325 87.965 17.164 L 87.965 17.164 L 87.965 17.164 Q 88.077 17.003 88.36 16.837 L 88.36 16.837 L 90.831 15.382 L 90.831 15.382 Q 91.104 14.61 91.539 14.049 L 91.539 14.049 L 91.539 14.049 Q 91.974 13.487 92.496 13.121 L 92.496 13.121 L 92.496 13.121 Q 93.019 12.755 93.59 12.574 L 93.59 12.574 L 93.59 12.574 Q 94.161 12.394 94.698 12.394 L 94.698 12.394 L 94.698 12.394 Q 95.245 12.394 95.602 12.682 L 95.602 12.682 L 95.602 12.682 Q 95.958 12.97 95.958 13.575 L 95.958 13.575 L 95.958 13.575 Q 95.958 13.946 95.689 14.352 L 95.689 14.352 L 95.689 14.352 Q 95.421 14.757 94.957 15.152 L 94.957 15.152 L 94.957 15.152 Q 94.493 15.548 93.868 15.89 L 93.868 15.89 L 93.868 15.89 Q 93.243 16.231 92.54 16.466 L 92.54 16.466 L 92.54 16.466 Q 92.54 16.935 92.525 17.354 L 92.525 17.354 L 92.525 17.354 Q 92.511 17.774 92.511 18.146 L 92.511 18.146 L 92.511 18.146 Q 92.511 18.458 92.53 18.717 L 92.53 18.717 L 92.53 18.717 Q 92.55 18.976 92.613 19.156 L 92.613 19.156 L 92.613 19.156 Q 92.677 19.337 92.789 19.439 L 92.789 19.439 L 92.789 19.439 Q 92.901 19.542 93.077 19.542 L 93.077 19.542 L 93.077 19.542 Q 93.351 19.542 93.736 19.322 L 93.736 19.322 L 93.736 19.322 Q 94.122 19.103 94.708 18.761 L 94.708 18.761 L 94.708 18.761 Q 95.235 18.448 96.056 17.979 L 96.056 17.979 L 96.056 17.979 Q 96.876 17.511 98.058 16.837 L 98.058 16.837 L 98.058 16.837 Q 98.097 16.808 98.165 16.808 L 98.165 16.808 L 98.165 16.808 Q 98.272 16.808 98.355 16.9 L 98.355 16.9 L 98.355 16.9 Q 98.438 16.993 98.438 17.13 L 98.438 17.13 L 98.438 17.13 Q 98.438 17.247 98.355 17.384 L 98.355 17.384 L 98.355 17.384 Q 98.272 17.521 98.058 17.647 L 98.058 17.647 L 98.058 17.647 Q 97.091 18.224 96.183 18.814 L 96.183 18.814 L 96.183 18.814 Q 95.274 19.405 94.469 19.889 L 94.469 19.889 L 94.469 19.889 Q 93.663 20.372 92.979 20.68 L 92.979 20.68 L 92.979 20.68 Q 92.296 20.987 91.788 20.987 L 91.788 20.987 L 91.788 20.987 Q 91.446 20.987 91.187 20.841 L 91.187 20.841 L 91.187 20.841 Q 90.929 20.694 90.748 20.372 L 90.748 20.372 L 90.748 20.372 Q 90.567 20.05 90.475 19.527 L 90.475 19.527 L 90.475 19.527 Q 90.382 19.005 90.382 18.253 L 90.382 18.253 L 90.382 18.253 Q 90.382 18.136 90.396 17.877 L 90.396 17.877 L 90.396 17.877 Q 90.411 17.618 90.445 17.32 L 90.445 17.32 L 90.445 17.32 Q 90.479 17.022 90.528 16.739 L 90.528 16.739 L 90.528 16.739 Q 90.577 16.456 90.646 16.3 L 90.646 16.3 L 90.646 16.3 Q 90.577 16.339 90.445 16.417 L 90.445 16.417 L 90.445 16.417 Q 90.313 16.495 90.138 16.598 L 90.138 16.598 L 90.138 16.598 Q 89.962 16.7 89.767 16.817 L 89.767 16.817 L 89.767 16.817 Q 89.571 16.935 89.376 17.052 L 89.376 17.052 L 89.376 17.052 Z  M 94.903 13.653 L 94.903 13.653 L 94.903 13.653 Q 94.923 13.595 94.923 13.526 L 94.923 13.526 L 94.923 13.526 Q 94.923 13.282 94.84 13.165 L 94.84 13.165 L 94.84 13.165 Q 94.757 13.048 94.562 13.048 L 94.562 13.048 L 94.562 13.048 Q 94.337 13.048 94.044 13.219 L 94.044 13.219 L 94.044 13.219 Q 93.751 13.39 93.473 13.722 L 93.473 13.722 L 93.473 13.722 Q 93.194 14.054 92.975 14.552 L 92.975 14.552 L 92.975 14.552 Q 92.755 15.05 92.677 15.694 L 92.677 15.694 L 92.677 15.694 Q 93.077 15.489 93.458 15.221 L 93.458 15.221 L 93.458 15.221 Q 93.839 14.952 94.146 14.674 L 94.146 14.674 L 94.146 14.674 Q 94.454 14.396 94.654 14.127 L 94.654 14.127 L 94.654 14.127 Q 94.854 13.858 94.903 13.653 Z  M 100.733 6.065 L 100.733 6.065 L 100.733 6.065 Q 100.606 6.231 100.406 6.339 L 100.406 6.339 L 100.406 6.339 Q 100.206 6.446 100.099 6.446 L 100.099 6.446 L 100.099 6.446 Q 99.972 6.446 99.894 6.349 L 99.894 6.349 L 99.894 6.349 Q 99.815 6.251 99.815 6.046 L 99.815 6.046 L 99.815 6.046 Q 99.815 5.782 99.903 5.357 L 99.903 5.357 L 99.903 5.357 Q 99.991 4.933 100.138 4.444 L 100.138 4.444 L 100.138 4.444 Q 100.284 3.956 100.484 3.463 L 100.484 3.463 L 100.484 3.463 Q 100.685 2.97 100.899 2.569 L 100.899 2.569 L 100.899 2.569 Q 101.114 2.169 101.339 1.92 L 101.339 1.92 L 101.339 1.92 Q 101.563 1.671 101.769 1.671 L 101.769 1.671 L 101.769 1.671 Q 102.071 1.671 102.276 1.739 L 102.276 1.739 L 102.276 1.739 Q 102.481 1.808 102.604 1.915 L 102.604 1.915 L 102.604 1.915 Q 102.726 2.022 102.774 2.169 L 102.774 2.169 L 102.774 2.169 Q 102.823 2.315 102.823 2.462 L 102.823 2.462 L 102.823 2.462 Q 102.823 2.677 102.755 2.882 L 102.755 2.882 L 102.755 2.882 Q 102.687 3.087 102.618 3.224 L 102.618 3.224 L 102.618 3.224 Q 102.354 3.741 102.149 4.093 L 102.149 4.093 L 102.149 4.093 Q 101.944 4.444 101.739 4.742 L 101.739 4.742 L 101.739 4.742 Q 101.534 5.04 101.295 5.343 L 101.295 5.343 L 101.295 5.343 Q 101.056 5.646 100.733 6.065 Z  M 111.339 14.63 L 111.339 14.63 L 111.339 14.63 Q 111.339 15.04 111.397 15.235 L 111.397 15.235 L 111.397 15.235 Q 111.456 15.431 111.529 15.582 L 111.529 15.582 L 111.529 15.582 Q 111.603 15.733 111.666 15.914 L 111.666 15.914 L 111.666 15.914 Q 111.729 16.095 111.729 16.476 L 111.729 16.476 L 111.729 16.476 Q 111.729 16.739 111.676 17.066 L 111.676 17.066 L 111.676 17.066 Q 111.622 17.394 111.476 17.74 L 111.476 17.74 L 111.476 17.74 Q 111.329 18.087 111.065 18.424 L 111.065 18.424 L 111.065 18.424 Q 110.802 18.761 110.392 19.024 L 110.392 19.024 L 114.22 16.837 L 114.22 16.837 Q 114.288 16.798 114.356 16.798 L 114.356 16.798 L 114.356 16.798 Q 114.464 16.798 114.547 16.881 L 114.547 16.881 L 114.547 16.881 Q 114.63 16.964 114.63 17.101 L 114.63 17.101 L 114.63 17.101 Q 114.63 17.208 114.537 17.364 L 114.537 17.364 L 114.537 17.364 Q 114.444 17.521 114.22 17.647 L 114.22 17.647 L 114.22 17.647 Q 113.019 18.331 112.154 18.834 L 112.154 18.834 L 112.154 18.834 Q 111.29 19.337 110.68 19.698 L 110.68 19.698 L 110.68 19.698 Q 110.069 20.06 109.679 20.299 L 109.679 20.299 L 109.679 20.299 Q 109.288 20.538 109.024 20.694 L 109.024 20.694 L 109.024 20.694 Q 108.556 20.978 108.136 21.075 L 108.136 21.075 L 108.136 21.075 Q 107.716 21.173 107.306 21.173 L 107.306 21.173 L 107.306 21.173 Q 106.993 21.173 106.852 21.065 L 106.852 21.065 L 106.852 21.065 Q 106.71 20.958 106.715 20.826 L 106.715 20.826 L 106.715 20.826 Q 106.72 20.694 106.866 20.582 L 106.866 20.582 L 106.866 20.582 Q 107.013 20.47 107.286 20.47 L 107.286 20.47 L 107.286 20.47 Q 107.765 20.47 108.214 20.143 L 108.214 20.143 L 108.214 20.143 Q 108.663 19.815 109.01 19.254 L 109.01 19.254 L 109.01 19.254 Q 109.356 18.692 109.566 17.94 L 109.566 17.94 L 109.566 17.94 Q 109.776 17.188 109.776 16.349 L 109.776 16.349 L 109.776 16.349 Q 109.776 16.222 109.83 15.86 L 109.83 15.86 L 109.83 15.86 Q 109.884 15.499 110.001 15.079 L 110.001 15.079 L 110.001 15.079 Q 110.118 14.659 110.309 14.259 L 110.309 14.259 L 110.309 14.259 Q 110.499 13.858 110.763 13.653 L 110.763 13.653 L 104.776 17.647 L 104.776 17.647 Q 104.679 17.716 104.571 17.716 L 104.571 17.716 L 104.571 17.716 Q 104.464 17.716 104.396 17.638 L 104.396 17.638 L 104.396 17.638 Q 104.327 17.56 104.327 17.442 L 104.327 17.442 L 104.327 17.442 Q 104.327 17.306 104.43 17.14 L 104.43 17.14 L 104.43 17.14 Q 104.532 16.974 104.776 16.837 L 104.776 16.837 L 104.776 16.837 Q 106.349 15.772 107.418 15.064 L 107.418 15.064 L 107.418 15.064 Q 108.487 14.356 109.161 13.917 L 109.161 13.917 L 110.528 12.989 L 110.528 12.989 Q 110.831 12.862 111.163 12.789 L 111.163 12.789 L 111.163 12.789 Q 111.495 12.716 111.778 12.716 L 111.778 12.716 L 111.778 12.716 Q 112.091 12.716 112.291 12.818 L 112.291 12.818 L 112.291 12.818 Q 112.491 12.921 112.491 13.146 L 112.491 13.146 L 112.491 13.146 Q 112.491 13.224 112.311 13.399 L 112.311 13.399 L 112.311 13.399 Q 112.13 13.575 111.915 13.795 L 111.915 13.795 L 111.915 13.795 Q 111.7 14.015 111.52 14.239 L 111.52 14.239 L 111.52 14.239 Q 111.339 14.464 111.339 14.63 Z " fill-rule="evenodd" fill="rgb(255,255,255)"/></g></svg>